/* XPM */
static char *result[] = {
/* columns rows colors chars-per-pixel */
"50 50 109 2 ",
"   c #577A30",
".  c #3F767D",
"X  c #517E56",
"o  c #48757E",
"O  c #447B7C",
"+  c #67851F",
"@  c #5A832B",
"#  c #5E8A2D",
"$  c #5D8330",
"%  c #63952C",
"&  c #669A2D",
"*  c #689E2E",
"=  c #608C30",
"-  c #669631",
";  c #6A9D32",
":  c #6AA12F",
">  c #6DA531",
",  c #6FA832",
"<  c #6DA43B",
"1  c #6FA838",
"2  c #71A734",
"3  c #72AC33",
"4  c #70A938",
"5  c #5A815D",
"6  c #568D5C",
"7  c #659D45",
"8  c #699D42",
"9  c #6D9748",
"0  c #649C4B",
"q  c #6B9E49",
"w  c #638B5D",
"e  c #6F8C58",
"r  c #639A52",
"t  c #629459",
"y  c #6A9C5D",
"u  c #7D9E5C",
"i  c #6CA342",
"p  c #6DA349",
"a  c #518760",
"s  c #5C8764",
"d  c #50876C",
"f  c #568C6C",
"g  c #5C8D6A",
"h  c #5B9463",
"j  c #5D926C",
"k  c #4D8677",
"l  c #588377",
"z  c #558B75",
"x  c #53877D",
"c  c #72876A",
"v  c #669761",
"b  c #6B9D64",
"n  c #67976C",
"m  c #679868",
"M  c #608C7C",
"N  c #79867E",
"B  c #669575",
"V  c #66937D",
"C  c #6A967C",
"Z  c #3E768B",
"A  c #356C96",
"S  c #366E9B",
"D  c #396D98",
"F  c #3B7493",
"G  c #36709E",
"H  c #3A729D",
"J  c #3771A0",
"K  c #3B74A1",
"L  c #407786",
"P  c #437B84",
"I  c #497D83",
"U  c #437A88",
"Y  c #4C7B8A",
"T  c #467397",
"R  c #487497",
"E  c #447897",
"W  c #487D90",
"Q  c #44759D",
"!  c #497E9D",
"~  c #557895",
"^  c #517B9E",
"/  c #457AA4",
"(  c #4B7EA5",
")  c #457DA9",
"_  c #4A7EA9",
"`  c #538782",
"'  c #528A85",
"]  c #4E819E",
"[  c #5B8496",
"{  c #5F8991",
"}  c #628D8E",
"|  c #649182",
" . c #65918A",
".. c #628395",
"X. c #658F96",
"o. c #638D9C",
"O. c #659099",
"+. c #4E81A7",
"@. c #4E80A9",
"#. c #5281A5",
"$. c #5E85A5",
"%. c #5383AA",
"&. c #5A87AB",
"*. c #5D89AD",
"=. c #6287A0",
"-. c #618AA3",
";. c #648CAE",
":. c #668EB0",
">. c #688FB0",
/* pixels */
"3 3 3 3 3 3 3 3 3 > 3 3 3 3 3 3 3 < y 3 3 3 3 4 3 3 3 3 3 3 3 3 3 1 3 3 3 3 3 3 3 3 3 3 3 3 3 3 3 3 ",
"3 3 3 3 3 3 3 , 3 3 3 3 3 3 3 3 3 1 -.p 3 3 3 3 3 3 3 3 3 3 3 3 ,  .p 3 3 3 3 3 3 3 3 3 3 3 3 3 3 3 ",
"3 3 3 3 3 3 3 & * 3 3 3 3 3 3 3 3 < %.O.3 3 3 3 3 3 3 3 3 3 3 3 g ;.i , 3 3 3 3 3 3 3 3 3 3 3 3 3 3 ",
"3 3 3 3 3 3 : & * , , 3 3 3 3 3 3 , ] ;.b 3 3 3 3 3 3 3 3 3 3 0 &.;.< 3 3 3 3 3 3 3 3 3 3 3 3 3 3 3 ",
"3 3 3 3 3 3 3 , 3 3 , 3 3 3 3 3 3 3 ` %.X.3 3 3 3 3 3 3 3 3 3 ` ;.X.3 3 3 3 3 3 3 3 3 3 3 3 3 3 3 3 ",
"3 3 3 3 3 3 3 3 3 3 3 3 3 3 3 3 3 3 j ( { 3 3 3 3 3 3 3 3 3 3 #.;.C , 3 3 3 3 3 3 3 3 3 3 3 3 3 3 3 ",
"3 3 3 3 3 3 3 3 3 3 3 3 3 3 3 3 3 3 < o ^ w n V  .} } | B y 9 ^ o.< 3 3 3 3 3 3 3 3 3 3 3 3 3 3 3 3 ",
"3 3 3 3 3 3 3 3 3 3 3 3 3 3 3 3 3 3 3 d %.;.;.;.;.;.;.;.;.;.-.*.w 3 3 3 3 3 3 3 3 3 3 3 3 3 3 3 3 3 ",
"3 3 3 3 3 3 3 3 3 3 3 3 3 3 : 3 3 2 f _ *.;.;.;.>.;.;.:.;.;.;.;.C 3 3 3 3 3 3 3 3 3 3 3 > 3 3 3 3 3 ",
"3 3 3 3 3 3 3 3 3 3 3 3 3 > % 2 3 h _ &.;.;.;.;.>.;.;.;.;.:.;.;.;.n 3 3 3 3 3 3 3 3 3 : % > 3 3 3 3 ",
"3 3 3 3 3 3 3 3 3 3 3 3 3 * & > 2 E _ :.;.:.;.;.;.;.:.;.:.;.;.:.;.;.8 3 3 3 3 3 3 3 3 : & : 3 3 3 3 ",
"3 3 3 3 3 3 3 3 3 3 3 3 2 > > 3 r _ %.;.;.;.;.;.;.;.;.;.:.;.;.;.;.;.B 3 3 3 3 3 3 3 3 3 3 3 3 3 3 3 ",
"3 3 3 3 3 3 3 3 3 3 3 3 3 3 # @ I _ &.;.;.;.;.;.;.;.:.;.:.*.;.;.;.;.$.< 3 & ; 3 3 3 3 3 3 3 3 3 3 3 ",
"3 3 3 3 3 3 3 3 3 3 3 3 3 3 3 < ) _ %.;.:.;.;.;.;.;.:.;.;.;.;.:.;.;.;.s $ ; 3 3 3 3 3 3 3 3 3 3 3 3 ",
"3 3 3 3 3 , 3 3 3 3 3 3 > & @ X _ _ %.;.;.;.;.:.;.;.:.;.;.;.;.;.;.;.;.} 3 3 3 3 3 3 3 3 3 3 3 3 3 3 ",
"3 3 3 3 3 3 3 3 3 3 3 3 3 3 3 h _ _ &.;.;.:.;.;.;.*.;.;.;.;.;.;.;.;.;.o.    @ = * 3 3 3 3 3 3 3 3 3 ",
"3 3 & : 3 3 3 3 3 3 3 3 3 > - k ) _ %.:.;.:.;.*.:.;.;.;.;.;.-.;.;.;.;.-.9 > 3 3 3 3 3 3 3 3 3 3 3 : ",
"3 > & : 3 3 3 3 3 3 3 3 2 1 1 ! _ %.*.:.;.;.;.;.:.;.;.;.;.;.;.;.;.;.;.;.5 @ # ; 2 3 3 3 3 3 3 3 > % ",
", 3 3 3 3 3 3 3 3 3 3 3 3 3 0 _ _ &.:.:.:.;.;.:.;.:.;.;.;.;.;.;.;.;.;.;.V 3 3 3 3 3 3 3 3 3 3 3 > > ",
"3 3 3 3 3 3 3 3 3 3 3 3 3 3 x _ &.*.;.;.;.:.*.;.:.;.;.;.;.;.;.:.;.;.;.;.[ 3 3 3 3 3 3 3 3 3 3 3 3 , ",
"3 3 3 3 3 3 3 3 3 3 3 3 3 7 ( %.:.:.:.;.*.:.:.;.;.;.;.;.;.;.;.;.;.;.;.;.;.v 3 3 3 3 3 3 3 3 3 3 3 3 ",
"3 3 3 3 3 3 3 3 3 3 3 3 3 ' @.%.;.;.;.:.:.;.:.*.;.;.:.;.;.;.;.;.;.-.;.;.:.o.1 3 3 3 3 3 3 3 3 3 3 3 ",
"3 3 3 3 3 3 3 3 3 3 3 3 q _ _ *.;.*.:.;.*.;.;.;.:.;.;.;.;.;.;.;.;.;.;.;.;.;.m 3 3 3 3 3 3 3 3 3 3 3 ",
"3 3 3 3 3 3 3 3 3 3 3 3 ' _ *.:.:.:.:.:.:.:.:.;.:.;.;.;.;.;.;.;.;.;.;.;.;.;.-.3 3 3 3 3 3 3 3 3 3 3 ",
"3 3 3 3 3 3 3 3 3 3 3 0 ) Q *.%.;.:.:.;.;.;.;.;.:.;.;.;.;.;.;.:.;.;.;.;.;.;.;.8 3 3 3 3 3 3 3 3 3 3 ",
"3 3 3 3 3 3 3 3 3 3 3 x _ / &.;.:.;.;.;.;.;.;.;.:.;.:.;.;.;.;.;.;.;.;.;.;.$.(  .3 3 3 3 3 3 3 3 3 3 ",
"3 3 3 3 3 3 3 3 3 3 < ! _ ^ *.:.;.:.;.;.;.:.;.;.;.;.;.;.:.;.;.;.;.;.-.;.;.;.T -., 3 3 3 3 3 3 3 3 3 ",
"3 3 3 3 3 3 3 3 , 3 z ) Q _ :.:.;.;.;.;.;.;.;.;.;.;.;.;.;.;.;.;.;.;.;.;.;.;.( #.n 3 3 3 3 3 3 3 3 3 ",
"3 3 3 3 3 3 3 3 3 3 W _ J &.;.;.;.;.;.;.;.;.;.;.:.*.;.;.;.;.;.;.;.;.;.;.-.;.%.Q [ 1 3 3 3 3 3 3 3 3 ",
"3 3 3 3 3 3 3 3 3 2 / / J _ :.;.;.;.;.;.;.;.;.;.;.:.;.:.;.:.;.;.;.;.;.;.;.;.;.Q *.p 3 , 3 : > 3 3 3 ",
"3 3 3 3 3 3 3 3 3 < ) / D _ ;.:.;.;.:.;.;.;.;.;.;.;.:.;.;.;.;.;.;.;.*.;.;.:.;.T +.p 3 3 > % : 3 3 3 ",
"3 3 3 3 3 3 3 3 4 ; / J D *.;.;.;.;.:.;.;.;.;.;.;.;.*.:.;.;.;.;.;.;.;.:.;.:.;.! +.p , 3 > > , 3 3 3 ",
"3 3 3 3 3 3 3 3 3 4 K G A *.;.;.;.:.;.;.;.;.;.;.-.:.;.;.;.;.;.;.;.;.;.;.;.;.;.^ ( q 3 3 3 3 3 3 3 3 ",
"3 3 3 3 3 3 3 3 3 3 I H A ;.;.;.;.;.;.;.;.;.*.;.;.;.;.;.;.;.;.;.;.;.;.;.-.;.;.R ! 1 3 3 > 3 3 3 3 3 ",
"3 3 3 3 3 3 3 3 3 3 n H A ;.;.:.;.:.;.;.;.;.:.;.:.;.;.;.;.;.:.;.;.;.;.;.;.;.;.R l 3 3 3 3 3 3 3 3 3 ",
"3 3 3 3 3 3 3 3 3 3 u ..S *.:.;.;.:.:.;.;.:.:.;.;.;.;.;.;.;.;.;.;.;.;.;.;.;.;.~ c 3 3 3 3 3 3 3 3 3 ",
"3 3 3 3 3 3 3 3 3 3 4 N S &.;.;.;.;.;.;.;.;.;.;.;.;.;.;.;.:.;.:.;.;.;.;.;.;.:...e 3 3 3 3 3 3 3 3 3 ",
"3 3 3 3 3 3 3 3 3 3 3 9 H &.;.;.:.;.;.;.;.;.;.:.;.;.;.;.;.;.;.;.;.;.;.=.;.:.-...3 3 3 3 3 3 3 3 3 3 ",
"3 3 3 3 3 3 3 3 3 3 3 3 U #.;.;.;.;.;.:.;.;.*.:.:.;.;.;.;.;.;.;.;.;.;.;.;.;.;...3 3 3 3 3 3 3 3 3 3 ",
"3 3 3 3 3 3 3 3 3 3 3 3 k ) ;.:.;.:.:.;.;.:.:.;.:.;.;.;.;.;.:.;.;.;.;.;.;.;.;.M 3 3 3 3 3 3 3 3 3 3 ",
"3 3 3 3 > & 3 3 3 3 3 3 h K *.:.;.:.;.;.:.:.:.;.;.;.;.;.;.;.;.;.;.;.;.;.;.;.:.g 3 3 3 3 3 3 3 3 , 3 ",
"3 3 3 , & & > 3 3 3 3 3 0 S _ ;.;.;.;.;.:.;.;.;.;.;.;.;.;.;.;.;.;.;.;.;.;.;.*.h 3 3 3 3 3 3 3 3 3 3 ",
"3 3 3 3 , , 3 3 3 3 3 3 8 S / ( ;.:.:.;.;.*.:.;.;.;.;.;.;.;.;.;.;.;.;.;.;.;.+.; 3 3 3 3 3 3 3 3 > * ",
"3 3 3 3 3 3 3 3 3 3 3 3 2 D K _ ;.;.;.;.;.;.:.;.;.:.;.;.;.;.;.:.;.;.;.;.;.;.%.8 3 3 3 3 3 3 3 3 : % ",
"3 3 3 3 3 3 3 3 3 3 3 3 3 . S J _ :.;.;.;.:.;.:.:.;.;.;.;.*.:.;.;.;.;.;.:.&.( < 3 3 3 3 3 3 3 3 3 , ",
"3 3 3 3 3 3 3 3 3 3 3 3 3 6 J J K _ ;.;.*.;.:.;.;.;.;.;.:.;.;.;.;.;.;.;.*._ ! 2 3 3 3 3 3 3 3 3 3 3 ",
"3 3 3 3 3 3 3 3 3 3 3 3 3 , Z G S K ) *.;.;.:.;.;.;.;.;.;.;.;.;.;.;.;.#._ %.Y 3 3 3 3 3 3 3 3 3 3 3 ",
"3 3 3 3 3 3 3 3 3 3 3 3 3 3 0 F J J S / %.*.;.;.;.;.;.;.;.;.;.;.&.%._ _ _ _ r 3 3 3 3 3 3 3 3 3 3 3 ",
"3 3 3 3 3 3 3 3 3 3 3 3 3 3 3 i O G G G G G H / +.( #.+.#.#.( / / / / K ] t , 3 3 3 3 3 3 3 3 3 3 3 ",
"+ : 3 3 3 3 3 3 3 3 3 3 3 3 3 3 , a O Z S G G F Z Z L O O P P U Z P k d 7 3 3 3 3 3 3 3 3 3 3 3 3 3 "
};
