/* XPM */
static char *result[] = {
/* columns rows colors chars-per-pixel */
"50 50 62 1 ",
"  c #7E5E32",
". c #5D7631",
"X c #527E31",
"o c #597931",
"O c #666F31",
"+ c #6C6B31",
"@ c #766432",
"# c #7B6032",
"$ c #637131",
"% c #0C715F",
"& c #17795C",
"* c #1B7B5B",
"= c #A93D33",
"- c #9C4633",
"; c #944C33",
": c #865732",
"> c #8C5333",
", c #815B32",
"< c #A14333",
"1 c #478631",
"2 c #4B8431",
"3 c #458931",
"4 c #4B8D31",
"5 c #4E9031",
"6 c #549531",
"7 c #5B9B32",
"8 c #63962B",
"9 c #669A2D",
"0 c #689E2E",
"q c #619F32",
"w c #6BA12F",
"e c #64A234",
"r c #6CA531",
"t c #6EA932",
"y c #69A738",
"u c #6EAC39",
"i c #72AC33",
"p c #79AF36",
"a c #76B034",
"s c #7AB436",
"d c #75B23A",
"f c #7BB639",
"g c #7EB93A",
"h c #2E8856",
"j c #248158",
"k c #348B55",
"l c #3B9053",
"z c #4C9B4F",
"x c #529F4D",
"c c #419451",
"v c #489850",
"b c #55A14D",
"n c #63AB49",
"m c #6DB147",
"M c #74B545",
"N c #7ABA43",
"B c #83BC3B",
"V c #87C03D",
"C c #8DC63F",
"Z c #81BE41",
"A c #85C140",
"S c #89C340",
/* pixels */
"iiiiiiiiitiiiiiiiaiiiiiiiiiiiiiiiitiiiiiiiiiiiiiii",
"iiiiiiitiiiiiiiiiiiiiiiiiiiipititiiiiiiiiiiiiiiiii",
"iiiiiii90iiiiiiiiiiiipiiiiiiiiiiwwitiiiiiiiaiaiiii",
"iiiiiir99itiiiiiiiiiiiiiiiiiiiiw89iiiiiiiiiiiiiiia",
"iiiiittitiiiiiiiiiiiiiiiiiiiiiiittiiiiiiiiiiiiiiii",
"iiiitiiiiiiiiiiiiaiiiiiiiiiiiiiiiiiiq535riiiiiiiii",
"aiiiiiiiiiiiiiiiiiiiiiaiiiiiiiiitit633333eiiiiitii",
"iiiiiiiiiiiiiitiiiiiiiiiiaiiiiiiiiq3333333tiiiiiii",
"iiiiiiiiiiiiiitiiiiiiiiiiiiiaiiiit33333333witiiiii",
"iiiiiiiiaiiiiw8tiiiiiiiaiiiiiiiit7333333336w8wtiii",
"iiiiiiiiiiiiiw0witiaiiiiiiiiiitit3333333335w9titia",
"iiaiiipiiiiitiiiiiiiiiiiiiiitiwiw3333333334iiiitii",
"iiiiiiiiiiiiiiiiiiiiiiiiiiiiiw8w63333333334iiiiiii",
"iiitiiiiiiiiiiiaiiiiiiiiiiitiwwt33333333333iiiiiii",
"iiititiiiiiiiiiiaiiiiiiiiiiiiiiw33333333335iiiiiii",
"iitiiiiiiiiiiiiiiiiiaiiiiiiiiitq33333333335iiiiiii",
"ii8wttiiiiiiaiiiiiiiiiiiiiiiati633333333336iiiiitw",
"iw9wtiiiiaiiiiiiiiiitiiiiiiitai533333333337iiiiit8",
"iiitiiiiiiiiiiiiiiiiiiiiiiiiatt333333333337iiiiitr",
"tiiiiassiiiiiiiiiititw4356ritar33333333333riiiiiii",
"iiiisCCCBiiiiaiiaitiw4333336tte33331333333tiiiiiii",
"iiiiCCCCCBiiiiiiiiii933333336a733332333335iiiiiiii",
"iiisCCCCCCiiiiiiiiiit33333333763333X333337iiiiiiii",
"iiisCCCCCCsiiiiiiiiti33333333353333o333337it767tii",
"iiigCCCCCCBiiiiiiitit5333333333333X213333tq33334ri",
"aiiBCCCCCCCiiiiiiiaii6333333333333$333334q3333336i",
"iiisCCCCCCCattiiiiiii7333333333333+33333543333333i",
"iiisCCCCCCCatitttiiiir333333333333+33333333333333i",
"iiiaCCCCCCCaeq34346tii433333333331+33333333333334i",
"iiiiCCCMmCCVt4eVCB336t63333333333..13333333333336i",
"iiiiVCCxjCCVifCCSS7334q3333333333@233333333333337i",
"iiiiBCCV%NCCfCCCCSe33353333333333,33333333333333ri",
"BCCgsCCCnVCCCCCCCC733333333333333:11333333333335ii",
"CCCCgCCCCCCCCCNCSC633333333333332,33333333333337ta",
"CCCCCCCCCCCCSm&CCV33333333333333O+3333333333333tii",
"CCCCCCCCCCCCCn*CSd3efSSe33333333,.3333333333336iii",
"CCCCCCCCAbCCCbvCCyBCCCSf33333333;2333333333333yiii",
"CCCmcCCCZ%MSCCCCCCCCCCSu33333331-3333333333335iiii",
"BCCN%MCCSvjSCCCCCCCSCCS73333333.>333333333333eiiii",
"sCCCz&CCSSlSSCCCSMSCCCZ33333333@,333333333335iiiii",
"iCCCSSCCCCCCCCCCN%NSSSe33333331>+33333333333ee7444",
"iVCCCCCCCSSSCCCCklSSCC433333311<o33333333334433333",
"iiCCCCCCCCCSCCSCbSSCCe7dq333332=133333333333333333",
"BBCCCCCSCCCmnCCCCCCSVfSSg33333$-333333333333333333",
"CCCCSSSSSSSMjSSSSCCSCCCCd33333 >333333333333333333",
"CCCCSSSSSSSS%NSSSSCZCCCCy33333;#333333333333333333",
"SV*hxZCCCCSSbSSCSMk%NCCC633331<+333333333333333333",
"CCdbljSCCCSSSCCCSvvASCSN33333.=o333333333333333333",
"CCCCCCCCCCCCCCCCCCCCCCC733333+=1333333333333333333",
"BCCVVCCCCCCCCCCCCCCCCCB433333,-3333333333333333339"
};
