/* XPM */
static char *result[] = {
/* columns rows colors chars-per-pixel */
"50 50 208 2 ",
"   c #030404",
".  c #050906",
"X  c #040609",
"o  c #050B0B",
"O  c #090D0E",
"+  c #06110D",
"@  c #0C1508",
"#  c #0A140D",
"$  c #111C09",
"%  c #060F11",
"&  c #080D11",
"*  c #061312",
"=  c #091414",
"-  c #061915",
";  c #0B1A15",
":  c #0E1618",
">  c #071C1A",
",  c #0B1C1B",
"<  c #111A17",
"1  c #121919",
"2  c #15290F",
"3  c #1A310F",
"4  c #0C2414",
"5  c #0A2B17",
"6  c #07231E",
"7  c #0B231D",
"8  c #0B2B1D",
"9  c #182713",
"0  c #12241C",
"q  c #14291E",
"w  c #123415",
"e  c #143915",
"r  c #1B351C",
"t  c #18371C",
"y  c #072720",
"u  c #0C2322",
"i  c #0C2B23",
"p  c #0D2D29",
"a  c #112522",
"s  c #112A24",
"d  c #1D2924",
"f  c #132C29",
"g  c #0F3326",
"h  c #0F322A",
"j  c #103325",
"k  c #1A3522",
"l  c #133A24",
"z  c #1C3C25",
"x  c #14332C",
"c  c #1E352D",
"v  c #133C2D",
"b  c #193C2D",
"n  c #143C32",
"m  c #242E24",
"M  c #233E25",
"N  c #2F491C",
"B  c #314D19",
"V  c #26511F",
"C  c #1D4423",
"Z  c #15422C",
"A  c #18452E",
"S  c #194B28",
"D  c #164532",
"F  c #174932",
"G  c #1B4B34",
"H  c #184838",
"J  c #175232",
"K  c #1B5334",
"L  c #175931",
"P  c #1B5A34",
"I  c #1C553B",
"U  c #234424",
"Y  c #22452A",
"T  c #244B2B",
"R  c #314B2F",
"E  c #245225",
"W  c #385F2B",
"Q  c #224931",
"!  c #354838",
"~  c #2C5536",
"^  c #235B35",
"/  c #265A35",
"(  c #1C6625",
")  c #1F6136",
"_  c #24692D",
"`  c #286B2F",
"'  c #396829",
"]  c #2F782C",
"[  c #36742B",
"{  c #236435",
"}  c #296637",
"|  c #246C35",
" . c #2B6C36",
".. c #23633A",
"X. c #356A37",
"o. c #3A633B",
"O. c #2B7333",
"+. c #2A7736",
"@. c #2A723B",
"#. c #357C35",
"$. c #37733F",
"%. c #3A7C38",
"&. c #44463C",
"*. c #465D3B",
"=. c #4A782B",
"-. c #436A39",
";. c #477635",
":. c #437B3D",
">. c #577E33",
",. c #394B44",
"<. c #324749",
"1. c #3A5957",
"2. c #337B43",
"3. c #446E4F",
"4. c #59654B",
"5. c #487841",
"6. c #4A774C",
"7. c #507B45",
"8. c #476B55",
"9. c #5C7B55",
"0. c #677759",
"q. c #6C7467",
"w. c #3C8830",
"e. c #36873C",
"r. c #3B8A39",
"t. c #67851F",
"y. c #4B872B",
"u. c #55852B",
"i. c #568D2E",
"p. c #50922B",
"a. c #498D3C",
"s. c #558734",
"d. c #4B9537",
"f. c #589436",
"g. c #5B9C35",
"h. c #599D3A",
"j. c #62952B",
"k. c #659A2D",
"l. c #689E2E",
"z. c #62873E",
"x. c #639B34",
"c. c #66993B",
"v. c #45A53C",
"b. c #6AA12F",
"n. c #6DA532",
"m. c #6FA933",
"M. c #67A538",
"N. c #6CA53D",
"B. c #6DA93B",
"V. c #72AC33",
"C. c #74AB35",
"Z. c #73AD3B",
"A. c #75B03A",
"S. c #78B33E",
"D. c #3D8845",
"F. c #418744",
"G. c #498948",
"H. c #4A9343",
"J. c #4D9448",
"K. c #549E44",
"L. c #569D49",
"P. c #5D8551",
"I. c #4B9A52",
"U. c #689748",
"Y. c #658351",
"T. c #6F9A59",
"R. c #4AA445",
"E. c #4CAC45",
"W. c #4FA84C",
"Q. c #58A14B",
"!. c #58A948",
"~. c #58B54B",
"^. c #56A950",
"/. c #61A546",
"(. c #68A849",
"). c #74A744",
"_. c #77AC46",
"`. c #64B44D",
"'. c #6CB54C",
"]. c #74B243",
"[. c #7BB543",
"{. c #7BB44C",
"}. c #75B949",
"|. c #68A754",
" X c #69B753",
".X c #75B454",
"XX c #7BB457",
"oX c #7DBE53",
"OX c #71BE59",
"+X c #7BBC5B",
"@X c #769364",
"#X c #7BA661",
"$X c #6DC056",
"%X c #71C254",
"&X c #75C35D",
"*X c #7CC259",
"=X c #7BC862",
"-X c #81BA47",
";X c #81B34D",
":X c #83BC4C",
">X c #82B453",
",X c #85BD59",
"<X c #83A067",
"1X c #87C557",
"2X c #8BCA61",
"3X c #93C561",
"4X c #94CC65",
"5X c #9BD06F",
/* pixels */
"V.V.V.V.V.V.V.V.V.V.V.V.V.V.V.V.V.V.V.V.C.V.V.V.V.V.V.V.V.V.V.V.m.V.V.V.V.V.V.V.V.V.V.V.V.V.V.V.V.V.",
"V.V.V.V.V.V.V.m.m.V.V.m.V.V.V.V.n.U.7.7.5.' a.'.d.h.i.x.M.M.M.m.m.V.V.V.V.V.V.V.V.V.V.V.V.V.V.V.V.V.",
"V.V.V.V.V.V.m.k.l.V.V.V.V.V.B./.5.8.1.1.c = t F.e.$.w t E E $.:.=.u.n.V.V.V.V.V.V.V.V.V.V.V.V.V.V.V.",
"V.V.V.C.V.V.b.l.l.m.V.V.V.N.I.2.~ c <.c & X . $ r ! . .     @ . # @ B j.b.V.V.V.V.V.V.V.V.V.V.V.V.V.",
"V.V.V.V.V.V.V.m.V.V.V.V.(.G...C + . o X X                             $ 3 B u.m.V.V.V.V.V.V.V.V.V.V.",
"V.V.V.V.V.V.V.V.V.V.V.j.6.3.Q ;                                             9 u.A.V.V.V.V.V.V.V.V.V.",
"V.V.V.V.V.V.V.V.C.C.Z.*.$ = # .                                               3 l.V.V.V.V.V.V.V.V.V.",
"V.V.V.V.V.V.V.V.C.C.U.! q O .                                                 @ =.V.V.V.V.V.V.V.V.V.",
"V.V.V.V.V.V.V.V.V.V.P.r @                                                     @ >.V.V.V.V.V.b.V.V.V.",
"V.V.V.V.V.V.V.V.V.b.T <                                                         B l.V.b.j.b.V.V.V.V.",
"V.V.V.V.V.V.V.V.C.M.V .                                                         2 j.V.b.l.b.V.V.V.V.",
"V.V.V.V.V.V.V.V.C.n.U o                                                         @ i.V.V.V.V.V.V.V.V.",
"V.V.V.V.V.V.V.V.V.n.U O                                                         $ U.V.V.V.V.V.V.V.A.",
"V.V.V.V.V.V.V.V.V.x.z o                                             .           d -.V.V.V.V.V.V.V.V.",
"V.V.V.V.V.V.V.V.V.k.Y o                                                       X   N m.V.V.V.V.V.V.V.",
"V.V.V.V.V.V.V.V.m.f.Y .                                                           r M.V.V.V.V.V.V.V.",
"V.V.j.b.V.V.V.V.m.=.4                                                             R ;XC.V.V.V.V.V.b.",
"b.V.k.k.m.m.V.V.n.-.+ X                                                           M c.V.V.V.V.V.b.j.",
"V.V.V.V.V.V.V.V.u.,.o X   X                                             .       X 9 c.C.V.V.V.V.V.b.",
"V.V.V.V.V.V.V.m.=.4 > X X                               .       .     .         O < z.C.V.V.V.V.V.V.",
"V.V.V.V.V.V.V.m.' 7 , X   X                                           .         : 0 Y.Z.C.C.V.V.V.V.",
"V.V.V.V.V.V.V.M.X.- + .                             .       .                 X = q @XA.C.C.V.V.V.V.",
"V.V.V.V.V.V.V.f./ #     X X X X                                               & > i 0.{.V.V.V.V.V.V.",
"V.V.V.V.V.V.V.h.U o     X X X X                                           X   % , g 9.{.V.V.V.V.V.V.",
"V.V.V.V.V.V.V.[ U o . o o X X X       X         .   .         . X   X .   X X & 6 8 o.).V.V.V.V.V.V.",
"V.V.V.V.V.V.m.y.C o . + o X X X     X   X   X                     X       X X & u g W N.V.V.V.V.V.V.",
"V.V.V.V.V.V.V.H.w o o o % X X O   X                                 X   . o O u u D G.).V.V.V.V.V.V.",
"V.V.V.V.V.m.n.a.k o % X O X O X   X     X         .                   X   = ; 7 7 A w.V.V.V.V.V.V.V.",
"V.V.V.V.V.V.B.V O o * o X X X X X X                           X       . = : > u 7 K F.Z.V.V.V.V.V.V.",
"V.V.V.V.V.V.g.e & * & o O X X O X X X X X                 X X       X ; u > u , b P J.Z.V.b.b.V.V.V.",
"V.V.V.V.V.V.y.5 : * : o O     X X   X X X X                         & , > > u p H / |.[.b.l.b.V.V.V.",
"V.V.V.V.V.V.y.5 , * ; o X X X X       X   X     X   X   X   X   X & : , > u , x Q } XXZ.V.b.b.V.V.V.",
"V.V.V.V.V.V.y.8 7 - 7 * X .   X       X . X     . .           X * : u : f y u i K X..XA.V.V.V.V.V.V.",
"V.V.V.V.V.V./.G y > - > o X           X   X . O X o X % & & % * = , > 6 p i s A | #..XA.m.V.V.V.V.V.",
"V.V.A.V.V.V.K.2.i - * i - X X . X   X       . . & & & & = & * o o , u y f - v ^ @.#.f.m.V.V.V.V.V.V.",
"V.V.V.V.V.m.f.^ x 6 + 7 y * X   X X   X X   . X X X X o X o X & ; > p p 8 6 A ..D.] p.m.V.V.V.V.V.V.",
"V.V.V.V.V.V.g.6.,.f * * p u * X   X X O o X . o       X X X o - > y y i n D P | +.r.Z.V.V.V.V.V.V.V.",
"V.V.V.V.V.V.N.;.! Q d - y p 6 - X X X X X o & O o . O . + * = u a , i h H I J | ( w.A.V.V.V.V.V.V.V.",
"V.V.V.V.V.V.V.s.*.q.,.; u p p 6 o . . X X X = * * & - > , 7 i i u u f n I L ) @._ d.V.V.V.V.V.V.V.V.",
"V.V.V.V.V.V.V.x.0.4.! , > 6 p i > , , * + ; ; , : ; , ; * , f f f f n H I ) | O.] h.V.V.V.V.V.V.V.V.",
"V.V.V.V.b.k.V.V.;.0.&.: o ; > y i p p - + 1 < = 1 a 0 , = u x n n v D J L ) | ] Q.}.V.V.V.V.V.V.V.V.",
"V.V.V.V.b.k.b.V.).<X4.m = # , , > i p f # , 1 : : 7 i 8 i j i v I K ..{ _ O.D.L.+XS.V.V.V.V.V.V.V.V.",
"V.V.V.m.V.m.V.V.V.'.=.w q s - ; - , i h h i x a a , x Z Z Z l Z ^ { | O.#.H.!.+X{.C.V.V.V.V.V.V.b.b.",
"V.V.V.V.V.V.V.V.V.}.(.( j i l T 7 a a s i i j j s 7 i v A K / { | #.#.e.^.OX'.1X].C.C.V.V.V.V.V.b.j.",
"V.V.V.V.V.V.V.V.V.A.oXL.E t } $.~ 6 8 5 8 Z Z D F F F L { `  .e.W.W.!.`. X*X1X1XV.V.V.V.V.V.V.V.V.V.",
"V.V.V.V.V.V.V.V.C.V.A.}.[ 5.5.C o.E o.l b J P J L |  .#.%.O.#.R.E.~.%X1X*X1X-XV.V.V.V.V.V.V.V.V.V.V.",
"V.V.V.V.V.V.V.V.V.V.V.V.n.>XT.;.#XT.-.t S $.D.+.+.e.F.d.L.L.L..X$X%X2X1X[.[.V.V.V.V.V.V.V.V.V.V.V.V.",
"V.V.V.V.V.V.V.V.V.V.C.V.V.V.[.4X3X3X.XH.#.W.~.R.E.v.!.=XOX(.(.5X4X*X1X1XA.V.V.V.V.V.V.V.V.V.V.V.V.V.",
"V.V.V.V.V.V.V.V.V.V.V.V.V.V.V.A.S.:X:X X&X&X&X&X=XOX&X'.+X{.;X1X*XA.V.V.V.V.V.V.V.V.V.V.V.A.V.V.V.V.",
"t.b.V.V.V.V.V.V.V.V.V.V.V.V.V.V.V.V.C.A.S.].oX1X,X_.).n.A.V.V.C.V.V.V.V.V.V.V.V.V.V.V.V.V.V.V.V.V.V."
};
