/* XPM */
static char *result[] = {
/* columns rows colors chars-per-pixel */
"50 50 68 1 ",
"  c #020100",
". c #0A0500",
"X c #0E0800",
"o c #120A00",
"O c #1B0E00",
"+ c #1F1101",
"@ c #221200",
"# c #291701",
"$ c #2E1901",
"% c #341C01",
"& c #3A1F01",
"* c #3D2101",
"= c #442501",
"- c #482701",
"; c #4D2A02",
": c #532D02",
"> c #582F02",
", c #5B3102",
"< c #5A3D07",
"1 c #5B3F08",
"2 c #633602",
"3 c #663803",
"4 c #6A3A03",
"5 c #723E03",
"6 c #5C450A",
"7 c #5E4A0C",
"8 c #5E500F",
"9 c #5E5411",
"0 c #65490A",
"q c #6A4A0A",
"w c #764003",
"e c #794103",
"r c #764E09",
"t c #64500D",
"y c #6B540D",
"u c #605C13",
"i c #6C5D12",
"p c #755D10",
"a c #626216",
"s c #6D6314",
"d c #6D6916",
"f c #646C19",
"g c #6C6D18",
"h c #736514",
"j c #66751D",
"k c #6E731B",
"l c #75761B",
"z c #727B1D",
"x c #677C20",
"c c #687D20",
"v c #698322",
"b c #678825",
"n c #6D8C25",
"m c #728321",
"M c #718D25",
"N c #63952B",
"B c #6C9429",
"V c #669A2D",
"C c #6B9D2D",
"Z c #729127",
"A c #719429",
"S c #70992B",
"D c #6BA12F",
"F c #70A02D",
"G c #6DA630",
"H c #6FA831",
"J c #70A630",
"K c #72AC33",
/* pixels */
"KKKKKKKKKKJKKKKKKKKKKKKKKKZgiiJKKHKHKKKKKKKKKKKKKK",
"KKKKKKKHHJKKKKKKKKKKKKSki44442uKHKKKKKKKKKKKKKKKKK",
"KKKKKKKVCKKKKKKKKKKKSq44444442uKVGKKKKKKKKKKKKKKKK",
"KKKKKKGVCKKKKKKKKKKKM444444442fCbzmzzzllhprrrAKKKK",
"KKKKKHZmmmmMMZZMMmzch44555555eeeeee5ww54555554nKKK",
"KKKKHzee5eeeeeeeeeeeeeeeeee55555444444444445e3fKKK",
"KKKKKM4444444444w545554554444444344444444444e2vKKK",
"KKKKKn44444444444444444444444444444444444445e,AKKK",
"KKKKKM4444344444444444444444444444444444444w5>KHKK",
"KKKKHn4444555455545455544334344443444444444w56KKKK",
"KKKKKn4444444444444444445555555544444434444529HKKK",
"KKKKKn4444444443444444444444444344444444442,7DKKKK",
"KKKKKn444442444444444444444443443444444442,0gnKKKK",
"KKKKKM4444, ,444444444444e555555w54ww45w443333xKKK",
"KKKKKA44442 :444444;&*24444244344442;>4444ww42fKKK",
"KKKKHF44444.-2$%2,o @..2=%o :>+-44;.X %444434,xKKK",
"KHNDKK42444o*o% %- -42o%% #$OXO.2>.%-O.444444>nHKD",
"HGVDHKg2,,,O.@,$o, *,>@+& *- o: =X .O@-,,222,7HKGN",
"KKKHKKd55ew# 25;.4oO,: ;> :3 %4o=3 =4,@-w540nKKGGG",
"HKKKHKd4444$O44>@4,o .*42 >4#:4O%4-X .%4443qgKKKKK",
"KKKKKKd444444444444424444,44444;>4344434444447KKKK",
"KKKKKKd44444444444444444444444444444444444444>KKKK",
"KKKKKKs444444444444444444444444444444444444421KKKK",
"KKKKKKi344444444444444444444443233343443444429KKKK",
"KKKKKKh444444444444444444444445w555555555444>xKKKK",
"KKKKKKs4444232344444444444444444444444444444>BKKKK",
"KKKKKKi44445w5554555422334444444444444444433>KKKKK",
"KKKKKKl04444444444444ww5554444444444444444328KKHKK",
"KKKKKKKx<,,222233334444444444444444443444342fKKKKK",
"KKKKKKKKKKCBvju7<,>>>,>,,,,,,,>,,,,,,2,,2,2,xDGKKK",
"KKKKKKKKKKKKHKKKKKCB0222222>xcxxcccxfxxbnCSbVNDKKK",
"KKKKKKKKHKKHKKKKKKKKy443444,JKKKKKKKKKKKKKKKHDGKKK",
"KKKKKKKKKKKKKKKKKKKKi444444,KKKKKKKKKKKKKKKKKKKKKK",
"KKKKKKKKKKKKKKKKKKKKi4444256KKKKKKKKKKKKKKKKKKKKKK",
"KKKKKKKKKKKKKKKKKKKKi4444446KHKKKKKKKKKKKKKKKKKKKK",
"KKKKKKKKKKKKKKKKKKKKh4454448KKKKKKKKKKKKKKKKKKKKKK",
"KKKKKKKKKKKKKKKKKKKKs4454439HHKKKKKKKKKKKKKKKKKKKK",
"KKKKKKKKKKKKKKKKKKKKi4444539HKKKKKKKKKKKKKKKKKKKKK",
"KKKKKKKKKKKKKKKKKKKKi445442fKKKKKKKKKKKKKKKKKKKKKK",
"KKKKKKKKKKKKKKKKKKKKi445442xKHKKKKKKKKKKKKKKKKKKKK",
"KHKKDVKKKKKKKKKKKKKKi44445,vKKKKKKKKKKKKKKKKKKKKKK",
"KKKHDVGKKKKKKKKKGKKKi34455,nKKKKKKKKKKKKKKKKKKKKKK",
"KKKKHHKKKKKKKKKKKKKKi24445>SKKKKKKKKKKKKKKKKKKKKKD",
"KKHKKKKKKKKKKKKKGKKKi45435>JKKKKKKKKKKKKKKKKKKKKHG",
"KKKKKKKKKKKKKKJVVKKKi44435,KKKKKKKKKKKKKKKKKKKKKKK",
"KKKKKKKKKKKKKKHHKKKKi444446KKJGNKKKKKKKKKKKKKKKKKK",
"KKKKKKKKKKKKKKKKKKKKi444529KKKDNKKKKKKKKKKKKKKKKKK",
"KKKKKKKKKKKKKKKKKKKKd4445,fKKKKKKKKKKKKKKKKKKKKKKK",
"KKKKKKKKKKKKKKKKKKKKKt222>cKKKKKKKKKKKKKKKKKKKKKKK",
"vKKKKKKKKKKKKKKKKKKKKKncfaFKKKKKKKKKKKKKKKKKKKKKKK"
};
