/* XPM */
static char *result[] = {
/* columns rows colors chars-per-pixel */
"50 50 182 2 ",
"   c #403C3B",
".  c #587E2C",
"X  c #537C35",
"o  c #223546",
"O  c #2A4357",
"+  c #2C4A64",
"@  c #33526D",
"#  c #335874",
"$  c #38616D",
"%  c #5C5756",
"&  c #4C6852",
"*  c #5C7454",
"=  c #597959",
"-  c #62755A",
";  c #45716D",
":  c #47637B",
">  c #616F7A",
",  c #687B74",
"<  c #67851F",
"1  c #5A832C",
"2  c #5F8B2E",
"3  c #5E8633",
"4  c #5B8939",
"5  c #63942C",
"6  c #669A2D",
"7  c #689E2E",
"8  c #699B31",
"9  c #6A9E3D",
"0  c #6AA12F",
"q  c #6DA531",
"w  c #6FA833",
"e  c #6CA33C",
"r  c #70A634",
"t  c #72AC33",
"y  c #5C8747",
"u  c #5F964D",
"i  c #578D56",
"p  c #5C9355",
"a  c #5E905D",
"s  c #659C44",
"d  c #649B4A",
"f  c #729E45",
"g  c #67825A",
"h  c #639554",
"j  c #689B5A",
"k  c #6CA242",
"l  c #6BA14B",
"z  c #72A045",
"x  c #6DA154",
"c  c #4F866B",
"v  c #548865",
"b  c #5B8D63",
"n  c #5C9363",
"m  c #5C9269",
"M  c #4D8473",
"N  c #4F867E",
"B  c #558A72",
"V  c #5C8178",
"C  c #54897B",
"Z  c #659663",
"A  c #689963",
"S  c #65946B",
"D  c #649274",
"F  c #699972",
"G  c #64927C",
"H  c #6A967F",
"J  c #3C6587",
"K  c #3C748A",
"L  c #316793",
"P  c #336995",
"I  c #3D6E93",
"U  c #356E9C",
"Y  c #3C7492",
"T  c #36709E",
"R  c #3B729C",
"E  c #3771A0",
"W  c #3A73A1",
"Q  c #466987",
"!  c #4C6F8D",
"~  c #567787",
"^  c #53738C",
"/  c #416E93",
"(  c #427194",
")  c #43759C",
"_  c #4B779D",
"`  c #49799F",
"'  c #567A94",
"]  c #537C9D",
"[  c #5A7F9F",
"{  c #4477A0",
"}  c #457AA5",
"|  c #4B7EA5",
" . c #477DA8",
".. c #497FA9",
"X. c #527DA0",
"o. c #4E8486",
"O. c #4D858B",
"+. c #538782",
"@. c #52858D",
"#. c #5C8B8B",
"$. c #4C829D",
"%. c #618D8F",
"&. c #659283",
"*. c #638E9A",
"=. c #659099",
"-. c #4D80AA",
";. c #5583A4",
":. c #5D84A4",
">. c #5384AB",
",. c #5986AB",
"<. c #5E89AC",
"1. c #6286A4",
"2. c #648CA4",
"3. c #6A8AA3",
"4. c #648CAE",
"5. c #6A8DAA",
"6. c #6D90AC",
"7. c #7E95A6",
"8. c #7393AC",
"9. c #7B97AB",
"0. c #7D99AD",
"q. c #668EB0",
"w. c #6F92B1",
"e. c #7597B1",
"r. c #7B9AB2",
"t. c #879EAE",
"y. c #839FB4",
"u. c #86A1B5",
"i. c #8AA4B6",
"p. c #83A2BC",
"a. c #8EA7B9",
"s. c #91A5B2",
"d. c #95AAB7",
"f. c #9AABB5",
"g. c #94AABA",
"h. c #99ADBA",
"j. c #9FB1BC",
"k. c #A3B5BD",
"l. c #ACB9BD",
"z. c #BFBEBE",
"x. c #93ABC0",
"c. c #A4B7C5",
"v. c #ADBBC2",
"b. c #B2BDC0",
"n. c #B3BEC9",
"m. c #B5C1C5",
"M. c #BAC6CA",
"N. c #BECACD",
"B. c #BECCD7",
"V. c #C0C7C5",
"C. c #C8C7C7",
"Z. c #C5CDCD",
"A. c #CBCFCA",
"S. c #CDD2CE",
"D. c #D1D0C7",
"F. c #D0D3CD",
"G. c #C3CED4",
"H. c #CBD2D1",
"J. c #D4D7D3",
"K. c #D6DAD5",
"L. c #DADDD5",
"P. c #D3DADA",
"I. c #DBDFDA",
"U. c #DCE0DB",
"Y. c #E4E4DB",
"T. c #E9E7DB",
"R. c #ECEADE",
"E. c #D4DFE6",
"W. c #DCE4EA",
"Q. c #E8E7E6",
"!. c #EDEBE1",
"~. c #ECEFE9",
"^. c #F1EFE3",
"/. c #EFF0EA",
"(. c #F2F0E4",
"). c #F6F5EC",
"_. c #F8F7EF",
"`. c #F8F8EF",
"'. c #F7F7F0",
"]. c #F8F7F0",
"[. c #F7F8F0",
"{. c #F8F8F0",
/* pixels */
"t t t t t t t t t t q t t t t t t D F t t t t t t t t t t t t t e H t t t t t t t t t t t t t t t t ",
"t t t t t t t w t t t t t t t t t m <.x t t t t t t t t t t t z #.%.t t t t t t t t t t t t t t t t ",
"t t t t t t t 6 7 t t t t t t t t m >.=.t t t t t t t t t t t D 4.&.t w t t t t t t t t t t t t t t ",
"t t t t t t 0 6 6 t t t t t t t t s | 4.x t t t t t t t t t e ;.4.Z w t t t t t t t t t t t t t t t ",
"t t t t t t t w w t t t t t t t t t $.>.Z t t t t t t t t t Z ,.4.k t t t t t t t t t t t t t t t t ",
"t t t t t t t t t t w t t t t t t t p | ~ z j A D G S A x k b ,.&.t t t t t t t t t t t t t t t t t ",
"t t t t t t t t t t t t t t t t t t e Y ,.4.4.4.4.4.4.4.4.2.;.' k t t t t t t t t t t t t t t t t t ",
"t t t t t t t t t t t t t t t t t e ' >.4.4.4.4.4.4.4.q.4.4.q.2.z t t t t t t t t t t t t t t t t t ",
"t t t t t t t t t t t t t r q t e O...4.4.4.<.q.4.4.4.4.q.4.4.4.*.e t t t t t t t t t t q t t t t t ",
"t t t t t t t t t t t t t q 5 w i ..<.4.e.4.4.q.4.q.q.4.4.4.4.4.4.G t t t t t t t t t 0 5 r t t t t ",
"t t t t t t t t t t t t q 6 6 q @.| <.P.z.x.<.q.>.| _ <.q.x.C.G.4.4.k t t t t t t t t 0 7 0 t t t t ",
"t t t t t t t t t t t t w 6 . X J >.4.J.  n.q.<.! o O :.q.B.% Q.w.4.S w w 8 q t t t t t t t t t t t ",
"t t t t t t t t t t t t t t t B J @ 4.c.E.y.q.q.4.! [ 4.4.p.W.B.4.:.~ 3 2 r t t t t t t t t t t t t ",
"t t t t t t t t t t t t 7 5 1 $ J / q.q.4.4.q.q.4.4.4.4.q.4.4.4.1.Q 1.j t t t r t t t t t t t t t t ",
"t t t t t t t t t t t t t t t $.| ( <.q.4.q.q.4.4.4.4.4.4.4.4.4.4.^ : & . 1 2 5 q t t t t t t t t t ",
"t t t t t t t t t t t t t 8 4 # + / ,.q.4.4.4.4.4.[ 4.4.4.4.4.4.4.:.' V 8 r t t t t t t t t t t t t ",
"w w 6 0 t t t t t t t t w t n -...>.q.q.4.q.4.4.4.4.4.4.4.4.4.4.4.4.<.' 1 1 5 r t t t t t t t t t 7 ",
"w q 6 0 t t t t t t t t t t O.-.>.q.q.q.q.q.q.q.4.4.e.5.4.4.q.q.4.q.4.4.l t t t t t t t t t t t 0 5 ",
"t t t t t t t t t t t t t k -.-.<.4.4.4.4.e.c.G.P.Q.)._.S.h.5.4.4.4.4.4.b t t t t t t t t t t t t w ",
"t t t t t t t t t t t t w o.-.>.4.q.q.r.H.].].{.{.{.{.{.].].!.j.8.4.4.4.*.e t t t t t t t t t t t t ",
"t t t t t t t t t t t t l -.-.<.q.4.v./.{.{.{.{.{./.).].].{.{.{.R.t.4.4.4.D t t t t t t t t t t t t ",
"t t t t t t t t t t t t +.-.,.4.4.c.^.).{.{.{.].H.1.8.P.].].].E.R.R.t.4.4.2.e t t t t t t t t t t t ",
"t t t t t t t t t t t l -.-.4.<.r.^.K.8.r.P.]./.y.v.v.f.].].x.5.6.J.R.0.4.4.F t t t t t t t t t t t ",
"t t t t t t t t t t t @.-.{ <.,.Y.L.6.a.N.P.].].).'.].].].].U.(.Z.d.^.D.4.4.%.w t t t t t t t t t t ",
"t t t t t t t t t t s } } >.>.N.!.Y.!.).`.{.`.[.].].'.]._.].{.].'.'.).(.f.` 4.j t t t t t t t t t t ",
"t t t t t t t t t w C -.` >.4.!.(.I.T.).{.).d.u.I.].'.I.8.h.~.{.).M.K.!.D.X.| &.t t t t t t t t t t ",
"t t t t t t t t t e } ..R -.g.!.j.4.4.~.{.k.0.i.y.].].c.i.u.k.{.G.8.2.n.^.9.) <.9 w t t t t t t t t ",
"t t t t t t t t w p } } ) -.H.s.h.F.Z.~.'.!.).)._.].].].[.).).'._._.Y.g.Y.k.` >.D t t t t t t t t t ",
"t t t t t t t t t m } T } >.T.!.(.(.{.{.{.{.{.{.'.{.`.{.{.`.{.{.{.{.{.{.(.V.| | %.t t t t t t t t t ",
"t t t t t t t t t B } P } e.(.^.(.).`.{.`.{.`.{.{.{.{.{.{.{.{.`.{.{.{.].).L.] ) #.t t t t 0 t t t t ",
"t t t t t t t t t B W L } c.(.(.(.).{.{.{.'.{.{.`.{.`.{.'.`.{.{.{.`.`.`.).T.4.( +.t w t w 5 0 t t t ",
"t t t t t t t t t b T L | M.(.!.(.).[.{.{.{.`.[.{.{.[.{.{.[.{.{.{.].{.`.).T.1.) +.t t t t 0 0 t t t ",
"t t t t t t t t t k U L -.F.(.(.^.).).{.{.{.{.{.{.{.{.{.{.{.[.{.{.{.{.[._.T.4.I b t t t t t t t t t ",
"t t t t t t t t t t ~ P -.J.(.(.(.).{.{.{.{.`.{.{.).{.{.{.{.[.`.{.`.{.`.).T.3.Q f t t t t t t w t t ",
"t t t t t t t t t t t.~ ` U.^.(.(.(.{.{.{.{.{.{.{.{.).{.{.{.{.{.`.[.{.`.).T.*.> f t t t t t t t t t ",
"t t t t t t t t t t t ~ R S.^.^.(.(.'.`.[.`.[.{.{.{.{.{.{.).`.{.`.{.{.{.^.Q.3., w t t t t t t t t t ",
"t t t t t t t t t t w v W k.(.(.(.(.).{.{.{.{.{.{.{.`.{.{.`.{.`.{.'.{.).(.J.4.h t t t t t t t t t t ",
"t t t t t t t t t t t l R 8.^.(.(.(.).).].`.{.{.{.{.[.{.{.).`.{.`.{.{.(.~.b.4.h t t t t t t t t t t ",
"t t t t t t t t t t t w Y | S.(.(.(.(.).{.{.`.`.{.{.{.{.{.).{.{.{.{.(.^.^.d.4.9 t t t t t t t t t t ",
"t t t t t t t t t t t t K } 7.(.^.^.(.(.).`.`.`.[.`.`.{.{.'.{.{.).).(.^.^.9.;.r t t t t t t t t t t ",
"t t t q 0 6 t t t t t t M E -.L.(.(.^.(.(.)._.`.`.`.`.`.`.).).).^.^.^.^.h.<.@.t t t t t t t t t t t ",
"t t t t 0 6 t t w t t t c E ..u.^.(.^.(.(.(.).).`.`.`.`.).).).(.^.^.^.A.:.,.C t t t t t t t t t t t ",
"t t t t w t t t t t t t i T E } b.^.(.^.(.(.^.(.(.(.(.(.(.(.^.^.^.^.Y.3.4.-.C t t t t t t t t t q 7 ",
"t t t w t t t t t t t t e T T W >.l.R.^.(.^.^.(.(.(.(.(.(.(.^.(.^.T.7.q.,.| B t t t t t t t t t 0 5 ",
"t t t t t t t t t t t t t M U U E | y.Y.(.!.^.(.^.^.^.^.(.(.^.(.L.1.4.<.-.-.i t t t t t t t t t t q ",
"t t t t t t t t t t t t t e Y T T E } X.m.Y.^.(.^.^.^.(.(.R.R.M.5.,. .| -.-.u t t t t t t t t t t t ",
"t t t t t t t t t t t t w t s K T T T R } R 3.k.m.Z.A.F.Z.m.*.-...|  ...>.a t t t t t t t t t t t t ",
"t t t t t t t t t t t t t w w w ; P T U T T T R T U T L R T T T R R I ! x t t t t t t t t t t t t t ",
"t t t t t t t t t t t t t t t w g * * = c N v p p u d e u s u u y * - g f t t t t t t t t t t t t t ",
"< t t t t t t t t t t t t t t t t t t t w t t t t t t t t t t t t w t t t t t t t t t t t t t t t t "
};
