/* XPM */
static char *Rock_resized[] = {
/* columns rows colors chars-per-pixel */
"50 50 85 1 ",
"  c None",
". c #130E1E",
"X c #161121",
"o c #1A1628",
"O c #1C192B",
"+ c #1F1D32",
"@ c #201F36",
"# c #212037",
"$ c #24233A",
"% c #29273E",
"& c #29283F",
"* c #262640",
"= c #272843",
"- c #2B2A42",
"; c #2C2E4C",
": c #312F44",
"> c #2E304F",
", c #34344C",
"< c #39374A",
"1 c #2F3251",
"2 c #343653",
"3 c #3A3A56",
"4 c #323759",
"5 c #353A5C",
"6 c #3C3E5B",
"7 c #373D62",
"8 c #383F65",
"9 c #3E405E",
"0 c #3A4166",
"q c #3C446B",
"w c #3E4771",
"e c #3F4872",
"r c #434563",
"t c #464866",
"y c #4B4D6B",
"u c #4E506F",
"i c #51526D",
"p c #414A74",
"a c #464E79",
"s c #4D5174",
"d c #47507A",
"f c #4A527D",
"g c #515577",
"h c #5B5B74",
"j c #51567A",
"k c #636379",
"l c #4C5580",
"z c #535B85",
"x c #595F85",
"c c #555E89",
"v c #5B6187",
"b c #5D638B",
"n c #5E6690",
"m c #626586",
"M c #626688",
"N c #64698D",
"B c #606792",
"V c #626A92",
"C c #676E98",
"Z c #686F99",
"A c #6B729B",
"S c #70779E",
"D c #72789D",
"F c #787D9F",
"G c #747AA2",
"H c #797FA3",
"J c #7C82A7",
"K c #7E84A9",
"L c #8285A2",
"P c #8187AB",
"I c #8388AB",
"U c #8B8EA8",
"Y c #8D90A9",
"T c #868CB0",
"R c #888EB2",
"E c #8C92B3",
"W c #9196B5",
"Q c #979CBB",
"! c #999EBC",
"~ c #9DA2BE",
"^ c #9FA3C0",
"/ c #A3A7C2",
"( c #A5A9C3",
") c #A8ABC5",
"_ c #A8ADC8",
/* pixels */
"             ........................             ",
"             OOOOOooOOOOOoOOooooOOOoO             ",
"             $&&:<<<<<<<<<<,<<<<:::&$             ",
"           X#,6tihkkkkkkkkkkkkkkhit6,@X           ",
"          Xo&9jMDLUUEYUUUUUUUYYYPDmj6&o.          ",
"          @#,uNHUQ/((//(((((//(/!RHNy,$@          ",
"         $:3ymHEQ/(____________)/QEFmy3:$         ",
"       .O-6jMHR!//(()((((((((()(//QEFNg9-O.       ",
"       O$<sCHR!/////(///((//(////(/QRHNg2%O       ",
"      $-<yMHRQ/())//////////////((//QEHmy<-$      ",
"    .+-9gMHRQ~/)/////////////////((/^QRFms9:@.    ",
"   Xo%3gVHY!//////////////////////////QEHNg3#oX   ",
"   #&<yNHRQ//(////////////////////(/((/QEHNy,&#   ",
"Xo$,9smFE!~/)///////////////////////(//^QEHMg9,%O.",
".o&6jNHEQ//////////////(///////(/////////QUHNj6&O.",
".o-rvDTQ/(//////////////////////////////(/QTDvr&O.",
".o-rNGR~()(////////(////(/(////////////))/~EGbr-o.",
".O-rcGR!(((////////////////////////////()/QUGvr&o.",
".O*9xSPW^/////////////(/////////////////^^WIDx9&oX",
".O&5jVGIW!^/(((//////////////(/////(((/^!WIGVf6&oX",
".o@2pcCSLRQ/(((//////////(//////////((/QEKGVcp4#o.",
"XO@1rfcVSPW!////////(///////////////((~WKSVcdq>#oX",
"Xo@>8plzVSIW!///)////////////////((^~~WPGVcla0;#oX",
"XO@;8pffzVDIRQ/)(//////////////((((^QEPDnzfdp0;#oX",
"Xo@>8paafzVSJW!/(///////////////((/~WJAVcldpe0>#oX",
"Xo@18ppppfzVSPW!/////(///(///(///^~WPDVcfpepe0>#oX",
"Xo@18ppwpafzVSPWQ^/))(((((((((((^QEPDVzfppeeeq>#oX",
"Xo@;8pppppafzVSJW!/()/(/(((((((/QEPSNzdappepe01#oX",
"Xo@18pppppppfcVSLW!//!^!^!^^^^^~WPAVclpeppppe0>#oX",
"Xo@18ppppqwwpfzVGPRWWWWWWWWWWWWEPDVcfapeepppp0>#oX",
"Xo@18papwppppafzVSJPJJJJHJJJJJLHDVclppeeppppe0>#o.",
"Xo@18ppppppppppfxVZSSASAASASASSAVcfppppeppppp0>@oX",
"Xo@1qeppppepeeealnZZCCCCCCCCCZZCnlapweeepepap81@oX",
"Xo@1qepppepeeepplnCZCCCCCCCCZZZCblaewepppppppq1@oX",
"Xo@1qwpeppppeeedznZZZZZZZZCCZZZCnzaeeeepeeppp81@oX",
"Xo@;5qwwepepeeedznZZZZZZZZZZZZZZncapeeppppwwq7;@oX",
"Xo@%;17qpppeeeedlnZAAZZZZZZZZZZZnlapwppppew72;*+oX",
"   +#*18ppppeeedcnZZZZZZZZZZZZZZnzaewepppe81*++   ",
"   Xo+;5weepeepalnZAZZZZZZZZZZZZnzapeeeeew5=+OX   ",
"    XO$;48qppepaznZZAZZZZZZZZZAZnzaepppq74;$+X    ",
"      +$=18weepdlnZAZZZZZZZZZAACnzapeew81=$+      ",
"       O+=4qeeedcnZZZZZZZZZZZZZZncaeewq4=+o       ",
"       Xo#>58qedcnZAAAAAZAAAAAAZncaeq87;$oX       ",
"         +%=17wdcVAAAAAAAAAAAAAAncaw71=*+         ",
"          O+*1qpznZAAZCAZZZZAAACnzaq1*+O          ",
"          Xo+;5wszxvvvvvbcvvvvvxzdr5;@oX          ",
"           X+*;236rtrrrrrrrrrrrr654;*+X           ",
"             +##%&&&-&&-&----&--*%#++             ",
"             ooooooooooOooooooooOoooo             ",
"             XXXXX..X..XX.X..X.X.XXXX             "
};
