/* XPM */
static char *result[] = {
/* columns rows colors chars-per-pixel */
"50 50 171 2 ",
"   c #79513A",
".  c #7A513A",
"X  c #7B513A",
"o  c #7B523A",
"O  c #7C523A",
"+  c #7D523A",
"@  c #7C523B",
"#  c #7E533B",
"$  c #7E7D38",
"%  c #81543B",
"&  c #82543B",
"*  c #84553C",
"=  c #85553C",
"-  c #86553C",
";  c #86563C",
":  c #87563C",
">  c #88563C",
",  c #88563D",
"<  c #89573D",
"1  c #875C3C",
"2  c #875D3C",
"3  c #865F3C",
"4  c #88583C",
"5  c #895A3D",
"6  c #8F5A3F",
"7  c #86603B",
"8  c #86613B",
"9  c #85653B",
"0  c #8D653E",
"q  c #826D3A",
"w  c #817139",
"e  c #827039",
"r  c #817439",
"t  c #975F41",
"y  c #9F6344",
"u  c #A16444",
"i  c #A86846",
"p  c #A96947",
"a  c #AC6A48",
"s  c #AD6B48",
"d  c #AF6C48",
"f  c #B06C49",
"g  c #B06D49",
"h  c #A77E45",
"j  c #AA7D46",
"k  c #AF7E48",
"l  c #B5704A",
"z  c #B8714B",
"x  c #B9764B",
"c  c #B8774B",
"v  c #BB734C",
"b  c #BA754C",
"n  c #BC744C",
"m  c #BD744D",
"M  c #BD754E",
"N  c #BE764F",
"B  c #B37B4A",
"V  c #B6794A",
"C  c #B7784B",
"Z  c #C17C58",
"A  c #C17D59",
"S  c #C27E5A",
"D  c #67851F",
"F  c #62942B",
"G  c #62952B",
"H  c #63952B",
"J  c #63962B",
"K  c #63962C",
"L  c #64952C",
"P  c #64962C",
"I  c #64972C",
"U  c #64982D",
"Y  c #65992D",
"T  c #66992D",
"R  c #669A2D",
"E  c #669B2D",
"W  c #679B2D",
"Q  c #679C2E",
"!  c #689D2D",
"~  c #689C2E",
"^  c #689D2E",
"/  c #689E2E",
"(  c #699E2E",
")  c #699F2E",
"_  c #6A9F2F",
"`  c #7B8A36",
"'  c #798F36",
"]  c #7D8138",
"[  c #789135",
"{  c #799136",
"}  c #789236",
"|  c #799236",
" . c #769934",
".. c #769A35",
"X. c #7B9F35",
"o. c #69A02F",
"O. c #6AA02E",
"+. c #6AA02F",
"@. c #6AA12F",
"#. c #6BA12F",
"$. c #6BA22F",
"%. c #6CA22F",
"&. c #6BA230",
"*. c #6CA330",
"=. c #6CA430",
"-. c #6DA530",
";. c #6FA531",
":. c #6DA630",
">. c #6DA631",
",. c #6EA630",
"<. c #6EA631",
"1. c #6EA731",
"2. c #6FA731",
"3. c #6FA831",
"4. c #6FA931",
"5. c #6FA932",
"6. c #70A730",
"7. c #72A732",
"8. c #73A633",
"9. c #72A733",
"0. c #79A635",
"q. c #78A735",
"w. c #7BA436",
"e. c #70A931",
"r. c #70A932",
"t. c #72A933",
"y. c #70AA32",
"u. c #71AA32",
"i. c #70AB32",
"p. c #71AB32",
"a. c #71AB33",
"s. c #72AB32",
"d. c #72AB33",
"f. c #73AB33",
"g. c #74AA33",
"h. c #71AC32",
"j. c #71AC33",
"k. c #72AC32",
"l. c #72AC33",
"z. c #76A834",
"x. c #8E963C",
"c. c #8E973C",
"v. c #829F38",
"b. c #839E39",
"n. c #869D3A",
"m. c #889B3A",
"M. c #899A3B",
"N. c #93933E",
"B. c #96903F",
"V. c #94923F",
"C. c #90943D",
"Z. c #90953D",
"A. c #80A138",
"S. c #9C8C41",
"D. c #A38744",
"F. c #AA8246",
"G. c #A18843",
"H. c #C3805D",
"J. c #C58563",
"K. c #C58664",
"L. c #C68866",
"P. c #C88B6A",
"I. c #C88B6B",
"U. c #CE987B",
"Y. c #CE997C",
"T. c #CF9B7E",
"R. c #D09D81",
"E. c #D19E83",
"W. c #D4A48B",
"Q. c #D4A58C",
"!. c #D7AB93",
/* pixels */
"l.l.l.l.p.p.p.p.p.p.p.l.l.l.l.l.l.l.l.l.l.l.l.l.l.l.l.l.l.l.p.p.p.p.p.p.l.l.l.l.l.l.l.l.l.l.l.l.l.l.",
"l.l.l.l.p.p.h.3.e.p.p.a.l.l.l.l.l.l.l.l.l.l.l.l.l.l.l.l.l.p.p.p.y.u.p.p.a.l.l.l.l.l.l.l.l.l.l.l.l.l.",
"l.l.l.l.l.p.y.R ) p.p.l.l.l.l.l.l.l.l.l.l.l.l.l.l.l.l.l.l.l.p.p.^ &.p.p.l.l.l.l.l.l.l.l.l.l.l.l.l.l.",
"l.l.l.l.p.p.1.E ! y.p.a.l.l.l.l.l.l.l.l.l.l.l.l.l.l.l.l.l.p.p.<.I W y.p.p.l.l.l.l.l.l.l.l.l.l.l.l.l.",
"l.l.l.l.p.p.u.y.y.p.p.l.l.l.l.l.l.l.l.l.l.l.l.l.l.l.l.l.l.p.k.y.5.e.p.p.l.l.l.l.l.l.l.l.l.l.l.l.l.l.",
"l.l.l.l.p.p.p.p.p.p.p.a.l.l.l.l.l.l.l.l.l.l.l.l.l.l.l.l.l.p.p.p.p.p.p.p.p.l.l.l.l.l.l.l.l.l.l.l.l.l.",
"l.l.l.l.l.l.l.l.l.l.l.l.p.p.p.l.p.l.l.l.l.l.l.l.l.l.l.l.l.a.k.p.p.p.p.p.l.l.l.l.l.a.p.p.p.l.p.p.l.l.",
"l.l.l.l.l.l.l.l.l.l.l.p.p.p.p.p.p.l.l.l.l.l.l.l.l.l.l.l.l.l.l.l.l.l.l.l.l.l.l.l.l.p.p.p.d.p.p.p.l.l.",
"l.l.l.l.l.l.l.l.l.l.l.p.p.u.<.p.p.a.l.l.l.l.l.l.l.l.l.l.l.l.l.l.l.l.l.l.l.l.l.l.l.p.p.u.-.p.p.p.l.l.",
"l.l.l.l.l.l.l.l.l.l.l.p.p.*.P 2.p.a.l.l.l.l.l.l.l.l.l.l.p.p.p.p.p.l.l.l.l.l.l.l.l.p.p.$.G -.p.p.l.l.",
"l.l.l.l.l.l.l.l.l.l.p.p.p.#.W -.h.a.l.l.l.l.l.l.l.l.l.j.p.p.p.p.p.p.l.l.l.l.l.l.l.p.p.*./ -.p.p.l.l.",
"l.l.l.l.l.l.l.l.l.l.l.p.p.p.p.p.p.a.l.l.l.l.l.l.l.l.l.p.p.e.=.p.p.p.l.l.l.l.l.l.l.p.p.p.p.a.p.p.l.l.",
"l.l.l.l.l.l.l.l.l.l.l.p.d.p.p.p.p.a.l.l.l.l.l.l.l.l.l.p.p.+.J ,.p.a.l.l.l.l.l.l.l.p.p.p.p.p.p.p.l.l.",
"p.p.p.p.p.l.l.l.l.l.l.l.l.l.l.l.l.l.l.l.l.l.l.l.l.f.Z.p.p.%.O.,.l.p.l.l.l.l.l.l.l.l.l.l.l.l.l.p.l.p.",
"p.p.p.p.p.p.l.l.l.l.l.l.l.l.l.l.l.l.l.l.l.l.l.l.l.c.G.p.p.s.h.p.p.p.l.l.l.l.l.l.l.l.l.l.l.l.l.p.p.p.",
"p.p.3.y.p.p.l.l.l.l.l.l.l.l.l.l.l.l.l.l.l.l.l.l.l.k v.p.p.p.p.p.l.p.l.l.l.l.l.l.l.l.l.l.l.l.p.p.p.u.",
"p.e.U +.p.p.h.l.l.l.l.l.l.l.l.l.l.l.l.l.l.l.l.l.q.C l.l.l.l.l.l.l.l.l.l.l.l.l.l.l.l.l.l.l.l.p.p.p./ ",
"p.-.E / y.p.p.l.l.l.l.l.l.l.l.l.l.l.l.l.p.p.l.l.b.F.l.l.l.l.l.l.l.l.l.l.l.l.l.l.l.l.l.l.l.l.p.p.,.G ",
"p.p.p.p.p.p.p.l.l.l.l.l.l.l.l.l.l.l.p.p. .$ q 8 2 < 7 9 r ` t.l.l.l.l.l.l.l.l.l.l.l.l.l.l.l.p.p.4.:.",
"p.p.p.p.h.p.d.l.l.l.l.l.l.l.l.l.l.l.9.w < = < < < < < < < < 3 } l.l.l.p.p.l.l.l.l.l.l.l.l.l.p.p.p.p.",
"l.l.l.l.l.l.l.l.l.l.l.l.l.l.l.l.l.l.e < < O # > # , % < ; = % 4 { p.p.p.p.p.p.l.l.l.l.l.l.l.l.l.l.l.",
"l.l.l.l.l.l.l.l.l.l.l.l.l.l.l.l.l.| : : , % * > * . = < * . * < 1 7.p.y.3.p.p.p.l.l.l.l.l.l.l.l.l.l.",
"l.l.l.l.l.l.l.l.l.l.l.l.l.l.l.l.l.] =   # < @ X < < % * : - > - < [ h.+.E y.p.l.l.l.l.l.l.l.l.l.l.l.",
"l.l.l.l.l.l.l.l.l.l.l.l.l.l.l.l.l...5 < < < : ; < < & . < : o + < ' u.Q R 1.p.p.l.l.l.l.l.l.l.l.l.l.",
"l.l.l.l.l.l.l.l.l.l.l.l.l.l.l.l.l.l.j f f f f f f f f a i u t 6 0 8.p.y.i.p.p.l.l.l.l.l.l.l.l.l.l.l.",
"l.l.l.l.l.l.l.l.l.p.p.p.p.p.l.l.l.l.B m m m m m m m m m m J.H.m S.p.p.p.p.p.p.p.l.l.l.l.l.l.l.l.l.l.",
"l.l.l.l.l.l.l.l.p.p.p.p.p.p.p.l.l.l.F.d v m m m m m m m m Y.P.m x.l.l.l.l.l.l.l.l.l.l.l.l.l.l.l.l.l.",
"l.l.l.l.l.l.l.l.p.p.r.) 2.p.p.l.l.l.D.p l s m m m m m m m R.K.m A.l.l.l.l.l.l.l.l.l.l.p.p.p.p.p.l.l.",
"l.l.l.l.l.l.l.l.p.p.=.F _ h.p.l.l.l.B.g a v m m m m m m m Q.S b f.l.l.l.l.l.l.l.l.l.p.p.p.p.p.p.p.l.",
"l.l.l.l.l.l.l.l.p.p.r.<.3.p.p.l.l.l.n.v y m m m m m m m N !.m F.l.l.l.l.l.l.l.l.l.l.p.p.p.+.5.p.p.l.",
"l.l.l.l.l.l.l.l.k.p.p.p.p.p.p.l.l.l.g.x u v m m m m m m L.U.m N.l.l.l.l.l.l.l.l.l.l.p.p.-.H +.p.p.l.",
"l.l.l.l.l.l.l.l.p.l.p.p.p.p.p.l.l.l.l.S.z z m m m m m M W.Z c z.l.l.l.l.l.l.l.l.l.l.p.p.1.*.,.p.p.l.",
"l.l.l.l.l.l.l.l.l.l.l.l.l.l.l.l.l.l.l.0.c m m m m m M T.I.m V.l.l.l.l.l.l.l.l.l.l.l.l.p.l.k.l.p.l.l.",
"l.l.l.l.l.l.l.l.l.l.l.l.l.l.l.l.l.l.l.l.M.n m m m A E.L.m D.l.l.l.l.l.l.l.l.l.l.l.l.p.p.p.p.p.p.p.l.",
"l.l.l.l.l.l.l.l.l.l.l.l.l.l.l.l.l.l.l.l.l.m.V m m M M V C.p.l.l.l.l.l.l.l.l.l.l.l.l.l.l.l.l.l.l.l.l.",
"l.l.l.l.l.l.l.l.l.l.l.l.l.l.l.l.l.l.l.l.l.l.g.S.m m h ;.p.p.l.l.l.l.l.l.l.l.l.l.l.l.l.l.l.l.l.l.l.l.",
"l.l.l.l.l.l.l.l.l.l.l.l.l.l.l.l.l.l.l.l.l.l.l.p.w.X.L T u.p.p.l.l.l.l.l.l.l.l.l.l.l.l.l.l.l.l.l.l.l.",
"l.l.l.l.l.l.l.l.l.l.l.l.l.l.l.l.l.l.l.l.l.l.l.p.p.e.=.=.y.p.p.l.l.l.l.l.l.l.l.l.l.l.l.l.l.l.l.l.l.l.",
"l.l.p.p.p.p.p.p.l.l.l.l.l.l.l.l.l.l.l.l.l.l.l.l.p.p.h.h.p.p.l.l.l.l.l.l.l.l.l.l.l.l.l.l.l.l.l.l.l.l.",
"l.d.p.p.y.e.p.p.p.l.l.l.l.l.l.l.l.l.l.l.l.l.l.l.l.p.p.p.p.p.l.l.l.l.l.l.l.l.l.l.l.l.l.l.l.l.l.l.l.l.",
"l.d.p.p.$.R y.p.p.l.l.l.l.p.l.p.l.l.l.l.l.l.l.l.l.l.l.l.l.l.l.l.l.l.l.l.l.l.l.l.l.l.l.l.l.l.p.p.p.p.",
"l.d.p.u./ Y >.p.p.l.l.l.l.p.p.p.p.p.p.l.l.l.l.l.l.l.l.l.l.l.l.l.l.l.l.l.l.l.l.l.l.l.l.l.l.l.p.p.p.p.",
"l.d.d.p.y.r.y.l.l.l.l.l.p.p.p.r.p.l.p.l.l.l.l.l.l.l.l.l.l.l.l.l.l.l.l.l.l.l.l.l.l.l.l.l.l.l.p.p.1.^ ",
"l.l.p.p.p.p.p.p.p.l.l.l.d.p.y.~ :.p.p.l.l.l.l.l.l.l.l.l.l.p.p.p.p.p.p.l.l.l.l.l.l.l.l.l.l.l.p.p.o.F ",
"l.l.l.l.p.p.p.l.p.l.l.l.p.p.*.K ( u.p.l.l.l.l.l.l.l.l.l.d.p.p.r.p.p.p.l.l.l.l.l.l.l.l.l.l.l.p.p.3.1.",
"l.l.l.l.l.l.l.l.l.l.l.l.p.p.u.r.y.p.p.l.l.l.l.l.l.l.l.l.p.p.2.R <.p.p.l.l.l.l.l.l.l.l.l.l.l.p.p.p.p.",
"l.l.l.l.l.l.l.l.l.l.l.l.p.p.p.p.p.p.p.l.l.l.l.l.l.l.l.l.p.p.#.P @.p.p.l.l.l.l.l.l.l.l.l.l.l.p.j.p.p.",
"p.p.p.l.l.l.l.l.l.l.l.l.l.l.l.l.l.l.l.l.l.l.l.l.l.l.l.l.p.p.y.r.y.p.a.l.l.l.l.l.l.l.l.l.l.l.l.l.l.l.",
"h.p.p.p.l.l.l.l.l.l.l.l.l.l.l.l.l.l.l.l.l.l.l.l.l.l.l.l.p.p.p.p.p.p.p.l.l.l.l.l.l.l.l.l.l.l.l.l.l.p.",
"D 6.p.p.l.l.l.l.l.l.l.l.l.l.l.l.l.l.l.l.l.l.l.l.l.l.l.l.p.k.p.p.p.j.a.l.l.l.l.l.l.l.l.l.l.l.l.l.l.p."
};
