/* XPM */
static char *result[] = {
/* columns rows colors chars-per-pixel */
"50 50 59 1 ",
"  c #67851F",
". c #62942B",
"X c #62952B",
"o c #63952B",
"O c #63962B",
"+ c #63962C",
"@ c #64962C",
"# c #64972C",
"$ c #65982C",
"% c #64982D",
"& c #65992D",
"* c #66992D",
"= c #669A2D",
"- c #669B2D",
"; c #679B2D",
": c #679C2E",
"> c #689D2D",
", c #689C2E",
"< c #689D2E",
"1 c #689E2E",
"2 c #699E2E",
"3 c #699F2E",
"4 c #6A9F2F",
"5 c #69A02F",
"6 c #6AA02E",
"7 c #6AA02F",
"8 c #6AA12F",
"9 c #6BA12F",
"0 c #6BA22F",
"q c #6CA22F",
"w c #6CA32F",
"e c #6BA230",
"r c #6CA330",
"t c #6CA430",
"y c #6DA530",
"u c #6DA630",
"i c #6DA631",
"p c #6EA630",
"a c #6EA631",
"s c #6EA731",
"d c #6FA731",
"f c #6FA831",
"g c #6FA931",
"h c #6FA932",
"j c #70A730",
"k c #70A931",
"l c #70AA31",
"z c #70A932",
"x c #70AA32",
"c c #71AA32",
"v c #70AB32",
"b c #71AB32",
"n c #71AB33",
"m c #72AB32",
"M c #72AB33",
"N c #71AC32",
"B c #71AC33",
"V c #72AC32",
"C c #72AC33",
/* pixels */
"CCCCbbbbbbbCCCCCCCCCCCCCCCCCCCbbbbbbCCCCCCCCCCCCCC",
"CCCCbbNfkbbnCCCCCCCCCCCCCCCCCbbbxcbbnCCCCCCCCCCCCC",
"CCCCCbx=3bbCCCCCCCCCCCCCCCCCCCbb<ebbCCCCCCCCCCCCCC",
"CCCCbbs->xbnCCCCCCCCCCCCCCCCCbba#;xbbCCCCCCCCCCCCC",
"CCCCbbcxxbbCCCCCCCCCCCCCCCCCCbVxhkbbCCCCCCCCCCCCCC",
"CCCCbbbbbbbnCCCCCCCCCCCCCCCCCbbbbbbbbCCCCCCCCCCCCC",
"CCCCCCCCCCCCbbbCbCCCCCCCCCCCCnVbbbbbCCCCCnbbbCbbCC",
"CCCCCCCCCCCbbbbbbCCCCCCCCCCCCCCCCCCCCCCCCbbbMbbbCC",
"CCCCCCCCCCCbbcabbnCCCCCCCCCCCCCCCCCCCCCCCbbcybbbCC",
"CCCCCCCCCCCbbr@dbnCCCCCCCCCCbbbbbCCCCCCCCbb0XybbCC",
"CCCCCCCCCCbbb9;yNnCCCCCCCCCBbbbbbbCCCCCCCbbr1ybbCC",
"CCCCCCCCCCCbbbbbbnCCCCCCCCCbbktbbbCCCCCCCbbbbnbbCC",
"CCCCCCCCCCCbMbbbbnCCCCCCCCCbb7OpbnCCCCCCCbbbbbbbCC",
"bbbbbCCCCCCCCCCCCCCCCCCCCCCbbq6pCbCCCCCCCCCCCCCbCb",
"bbbbbbCCCCCCCCCCCCCCCCCCCCCbbmNbbbCCCCCCCCCCCCCbbb",
"bbfxbbCCCCCCCCCCCCCCCCCCCCCbbbbbCbCCCCCCCCCCCCbbbc",
"bk%7bbNCCCCCCCCCCCCCCCCCCCCCCCCCCCCCCCCCCCCCCCbbb1",
"by-1xbbCCCCCCCCCCCCCbbCCCCCCCCCCCCCCCCCCCCCCCCbbpX",
"bbbbbbbCCCCCCCCCCCbbbbnbCCCCCCCCCCCCCCCCCCCCCCbbgu",
"bbbbNbMCCCCCCCCCCCbblzbbbCCCCCCCCCCbbCCCCCCCCCbbbb",
"CCCCCCCCCCCCCCCCCCbb8<cbCCCCCCCCCbbbbbbCCCCCCCCCCC",
"CCCCCCCCCCCCCCCCCCbx-$sbbCCCCCCCCbbxfbbbCCCCCCCCCC",
"CCCCCCCCCCCCCCCCCCbbzzcNVCCCCCCCCbN7-xbCCCCCCCCCCC",
"CCCCCCCCCCCCCCCCCCbbbbbbnCCCCCCCCbc:=sbbCCCCCCCCCC",
"CCCCCCCCCCCCCCCCCCbbbbbCCCCCCCCCCbbxvbbCCCCCCCCCCC",
"CCCCCCCCCbbbbbCCCCCCCCCCCCCCCCCCCbbbbbbbCCCCCCCCCC",
"CCCCCCCCbbbbbbbCCCCCCCCCCCCCCCCCCCCCCCCCCCCCCCCCCC",
"CCCCCCCCbbz3dbbCCCCCCCCCCCCCCCCCCCCCCCCCCCCbbbbbCC",
"CCCCCCCCbbt.4NbCCCCCCCCCCCCCCCCCCCCCCCCCCCbbbbbbbC",
"CCCCCCCCbbzafbbCCCCCCCCCCCCCCCCCCCCCCCCCCCbbb7hbbC",
"CCCCCCCCVbbbbbbCCCCCCCCCCCCCCCCCCCCCCCCCCCbbyo7bbC",
"CCCCCCCCbCbbbbbCCCCCCCCCCCCCCCCCCCCCCCCCCCbbsrpbbC",
"CCCCCCCCCCCCCCCCCCCCCCCCCCCCCCCCCCCCCCCCCCCbCVCbCC",
"CCCCCCCCCCCCCCCCCCCCCCCCbbbbnnCCCCCCCCCCCCbbbbbbbC",
"CCCCCCCCCCCCCCCCCCCCCCCbbbbbbbCCCCCCCCCCCCCCCCCCCC",
"CCCCCCCCCCCCCCCCCCCCCCCbbbwybbCCCCCCCCCCCCCCCCCCCC",
"CCCCCCCCCCCCCCCCCCCCCCCbbfO*cbbCCCCCCCCCCCCCCCCCCC",
"CCCCCCCCCCCCCCCCCCCCCCCbbkttxbbCCCCCCCCCCCCCCCCCCC",
"CCbbbbbbCCCCCCCCCCCCCCCCbbNNbbCCCCCCCCCCCCCCCCCCCC",
"CMbbxkbbbCCCCCCCCCCCCCCCCbbbbbCCCCCCCCCCCCCCCCCCCC",
"CMbb0=xbbCCCCbCbCCCCCCCCCCCCCCCCCCCCCCCCCCCCCCbbbb",
"CMbc1&ibbCCCCbbbbbbCCCCCCCCCCCCCCCCCCCCCCCCCCCbbbb",
"CMMbxzxCCCCCbbbzbCbCCCCCCCCCCCCCCCCCCCCCCCCCCCbbs<",
"CCbbbbbbbCCCMbx,ubbCCCCCCCCCCbbbbbbCCCCCCCCCCCbb5.",
"CCCCbbbCbCCCbbr+2cbCCCCCCCCCMbbzbbbCCCCCCCCCCCbbfs",
"CCCCCCCCCCCCbbczxbbCCCCCCCCCbbd=abbCCCCCCCCCCCbbbb",
"CCCCCCCCCCCCbbbbbbbCCCCCCCCCbb9@8bbCCCCCCCCCCCbBbb",
"bbbCCCCCCCCCCCCCCCCCCCCCCCCCbbxzxbnCCCCCCCCCCCCCCC",
"NbbbCCCCCCCCCCCCCCCCCCCCCCCCbbbbbbbCCCCCCCCCCCCCCb",
" jbbCCCCCCCCCCCCCCCCCCCCCCCCbVbbbBnCCCCCCCCCCCCCCb"
};
