/* XPM */
static char *result[] = {
/* columns rows colors chars-per-pixel */
"50 50 154 2 ",
"   c #476133",
".  c #4F6B3B",
"X  c #5A7867",
"o  c #587E7E",
"O  c #67851F",
"+  c #63952B",
"@  c #669A2D",
"#  c #689E2E",
"$  c #69943A",
"%  c #699F39",
"&  c #6AA12F",
"*  c #6DA531",
"=  c #6FA832",
"-  c #6EA439",
";  c #6FA83B",
":  c #70A730",
">  c #72AC33",
",  c #71A73C",
"<  c #72AA3B",
"1  c #5F8C5F",
"2  c #6A9F43",
"3  c #66964A",
"4  c #67994B",
"5  c #6B9E4B",
"6  c #60805B",
"7  c #659553",
"8  c #679853",
"9  c #6A9C53",
"0  c #63945C",
"q  c #679A5E",
"w  c #6A9C5B",
"e  c #6CA244",
"r  c #6CA24B",
"t  c #79AD40",
"y  c #6CA157",
"u  c #5C8569",
"i  c #5E8672",
"p  c #5F897D",
"a  c #608E62",
"s  c #659563",
"d  c #6A9D67",
"f  c #66956B",
"g  c #69986A",
"h  c #729C62",
"j  c #799F66",
"k  c #628F73",
"l  c #618A7B",
"z  c #6A9C74",
"x  c #65937C",
"c  c #6BA065",
"v  c #81AF4D",
"b  c #8BB65B",
"n  c #8EB561",
"m  c #98BC6F",
"M  c #A2C17C",
"N  c #4C6B83",
"B  c #587A89",
"V  c #4C7294",
"C  c #4E779C",
"Z  c #4F789D",
"A  c #507596",
"S  c #5B7791",
"D  c #567B93",
"F  c #51789C",
"G  c #5C7E9E",
"H  c #517BA1",
"J  c #5D8981",
"K  c #5E8594",
"L  c #5D849C",
"P  c #5C8999",
"I  c #618D8E",
"U  c #649285",
"Y  c #65928B",
"T  c #60879F",
"R  c #618A9A",
"E  c #659393",
"W  c #659891",
"Q  c #64989D",
"!  c #5D83A4",
"~  c #5C85AA",
"^  c #5F8EA9",
"/  c #5C89B2",
"(  c #5F8EBA",
")  c #5F91BE",
"_  c #638CA5",
"`  c #6087AA",
"'  c #628BAC",
"]  c #718FA8",
"[  c #6495AD",
"{  c #648DB3",
"}  c #628EBA",
"|  c #6591B4",
" . c #6A91B4",
".. c #6392BC",
"X. c #6797BC",
"o. c #7595B1",
"O. c #7096B8",
"+. c #739ABC",
"@. c #789BB9",
"#. c #6396C4",
"$. c #6598C7",
"%. c #6A9AC5",
"&. c #6499C8",
"*. c #739CC1",
"=. c #818182",
"-. c #8297A5",
";. c #86A5B3",
":. c #90A7B8",
">. c #98ACB9",
",. c #A2B2AB",
"<. c #A9C686",
"1. c #B5C79A",
"2. c #C7D4B4",
"3. c #C9D8B3",
"4. c #8CAAC3",
"5. c #86ABCA",
"6. c #92ADC3",
"7. c #97B4CD",
"8. c #92B4D0",
"9. c #99B7D2",
"0. c #A6B7C4",
"q. c #A4B8C6",
"w. c #A8BDCD",
"e. c #B5C1C7",
"r. c #ADC5D7",
"t. c #BECBD3",
"y. c #C9CECC",
"u. c #D2DAC4",
"i. c #D7DEC9",
"p. c #C3CFD5",
"a. c #CCD1D1",
"s. c #C1D0D9",
"d. c #D3D7D4",
"f. c #E1DFD7",
"g. c #D6E1C5",
"h. c #E1E3D5",
"j. c #E4EAD7",
"k. c #E5E4DA",
"l. c #EAEADE",
"z. c #CDD9E0",
"x. c #D5DDE0",
"c. c #DCE2E2",
"v. c #E3E5E4",
"b. c #EDEAE2",
"n. c #E7EAE9",
"m. c #EDEEEB",
"M. c #F1EEE6",
"N. c #F2EFE8",
"B. c #EFF0ED",
"V. c #F3F3ED",
"C. c #F6F6F1",
"Z. c #F8F7F2",
"A. c #FAF9F4",
"S. c #FCFBF8",
/* pixels */
"> > > > > > > > > > > > > > > > > > > > > > > , > > > > ; > > > > > > > > > > > > > > > > > > > > > ",
"> > > > > > > = : > > = > > > > > > > > > = c x > > > 9 R > = > = > > : > > > > > > > > > > > > > > ",
"> > > > > > > @ & > > > > > > > > > > > > t [ z > > , [ ` > > > & & > > > > > > > > > > > > > > > > ",
"> > > > > > & @ @ > > > > > > > > > > > < z #.x > > d $.' > > * + @ = > > > > > > > > > > > > > > > ",
"> > > > > > : > = > > > > > > > > > > > > x } l > = R #.' , > > > > > > > > > > > > > > > > > > > > ",
"> > > > > > > > > > > > > > > > > > > > > 6 F 1 > r X.$.{ , > > > > > > > < > > > > > > > > > > > > ",
"> > > > > > > > > > > > > > = > > > > y Q X...^ E u B ~ i > > > > > > > > > > > > > > > > > > > > > ",
"> > > > > > > > > > > > > > > > > c W &.$.$.#.&.$.A F V 3 > > > > > > > > > > > > > > > > > > > > > ",
"> > > > > > > > > > > > > > = > z #.$.&.$.&.&.&.$.$.$.| ' g = > > > > > > > > > > : > > : > > > > > ",
"> > > > > > > > > > > > > & + e X.&.#.#.#.#.#.#.$.#.#.| { ' s > > > > > > > > > > > > & + : > > > > ",
"> > > > > > > > > > > > = & @ q #.#.6.7.#.&.&.&.$.$.$.$.| { P - > > > > > > > > > > : & & & > > > > ",
"> > > > > > > > > > > > > > = 0 ~ %.=.B.*.&.#.&.$.$.$.$.#.{ { s > > > > > > > > > > > > > > > > > > ",
"> > > > > > > > > > > > > >   N ) #.7.9.#.&.&.#.&.$.#.&.#.{ { L = > > > > > > > > > > > > > > > > > ",
"> > > > > > > > > > > > > > P &.$.#.) C V C ( #.$.$.&.$.$.{ { { c > > > > > > > > > > > > > > > > > ",
"> > > > > > > > > > > > > < | #.&.) H C V Z #.#.$.$.$.$.&.{ { { W > > > > > > > > > > > > > > > > > ",
"> > > > > > > > > > > > > > W #.#.#.#.F #.#./ ..$.$.$.$.$.{ { { _ > > > > > > > > > > > > > > > > > ",
"> > + & > > > > > > > > > e ..$.$.#.&.#.Z ~ #.&.&.#.&.&.#.| { { T - > > > > > > > > > > > > > > > # ",
"> : @ & > > > > > > > > > x } O.) #.#.#.&.#.#.#.&.&.#.&.#.| { { { 5 > > > > > > > > > > > > > > & @ ",
": > > > > > > > > > > > < ,.v.Z.c.t.@.#.#.$.&.&.#.&.&.&...{ { { { s > > > > > > > > > > > > > > : = ",
": > > > > > > > > > > > <.Z.Z.A.A.S.M.s.#.&.#.#.&.&.#.&...{ { { [ K > > > > > > > > > > > > > > > > ",
"> > > > > > > > > > > j m.Z.Z.A.A.S.Z.b.a.X.&.#.$.$.#.$...{ { { { ' e > > > > > > > > > > > > > > > ",
"> > > > > > > > > > < ;.7.A.Z.Z.Z.A.S.V.b.6.&.&.$.&.&.&.| { { { { { q > = > > = > > > > > > > > > > ",
"> > > > > > > > > > M A.x.Z.7.r.Z.Z.Z.A.b.e.&.&.$.$.#.$...{ { { { { s & @ > > > > > > > < > > > > > ",
"> > > > > > > > > > g.S.Z.C.z.5.B.A.A.A.M.k.+.&.$.$.&.&...{ { { { | f @ @ * > > > > > > > > > > > > ",
"> > > > > > > > > t l.B.C.C.Z.n.m.S.A.S.M.b.q.&.$.#.$.$.} { { { { { p = > > > > > > > > > > > > > > ",
"> > > > > > > > > n C.4.5.C.Z.A.A.x.8.N.b.b.q.&.#.#.#.$...{ { { { { B > > = > > > > > > > > > > > > ",
"> > > > > > > > > <.A.A.z.m.Z.Z.A.x.w.s.b.b.4.&.#.#.$.$.#.{ } { | { ! * > > > > > > > > > > > > > > ",
"> > > > > > > > > 1.A.A.Z.Z.A.v.p.A.A.x.b.b.;.$.} ..$.#.#.{ { { { { ` % > > > > > > > > > > : > > > ",
"> > > > > > > > > 2.Z.Z.A.A.Z.w.*.x.A.S.M.b.0.%.} ..$.$.$.{ ' { { { { e > > > > > > > > > > > > > > ",
"> > > > > > > > > i.Z.A.Z.Z.A.A.n.p.A.S.N.b.k.} } #.$.$.#.} ~ { { { | 5 > > > > > > > > > & = > > > ",
"> > > > > > > > > k.Z.A.A.Z.A.Z.Z.A.A.S.M.b.b.{ ' #.$.$.$.} ` { { { | 4 > > > > > > > > & + & > > > ",
"> > > > > > > > : u.A.A.A.Z.A.Z.A.A.A.S.b.l.M.+.} ( $.$.$.{ ` { { { { 2 > > > > > > > > = & = > > > ",
"> > > > > > > > > 3.A.A.A.Z.A.Z.Z.A.A.Z.l.b.b...%./ $.$.#.{ ! { { { { 4 > > > > > > > > > > > > > > ",
"> > > > > > > > > <.A.A.A.A.A.Z.A.A.S.Z.b.l.f.~ $.( } $.} ` ` { { { ! e > > > > > > > > > > > > > > ",
"> > > t > > > > > m A.A.A.A.Z.A.A.A.S.N.M.b.k.' $.#.G S N ! { { ' { K > > > > > > > > > > > > > > > ",
"> > > > > > > > > b Z.A.A.A.A.Z.A.A.S.N.l.l.b.o.#.#.! S D ` { { { { B > > > > > > > > > > > > > > > ",
"> > > > > > > > > > j.A.A.A.A.A.A.A.S.M.b.b.a.} $.$.%.} { { { { { { u > > > > > > > > > > > > > > > ",
"> > > > > > > > > > 1.A.A.A.A.A.A.A.Z.l.b.b.4.&.&.#.#.#.{ { { { { { 7 > > > > > > > > > > > > > > > ",
"> > > > > > > > > > v C.A.A.A.A.S.S.M.b.b.a.%.&.$.#.#.} { { { { { { 7 > > > > > > > > > > > > > > > ",
"> > > > > > > > > > > 3.A.A.A.A.A.N.b.b.d. .$.&.$.&.#.{ { { { {  .{ 7 > > > > > > > > > > > > > > > ",
"> : > > & @ > > > > > b A.A.A.A.M.b.l.b.o.#.$.$.$.$.} { { { { { { { 0 > > > > > > > > > > > > > > > ",
"> > > > # @ : > > > > > M Z.M.b.b.b.b.y.} #.$.$.$.$...{ { { { { { { u : > > > > > > > > > > > > > > ",
"> > > : > : > > > > > > > M j.l.b.b.b.:.#.$.$.#.&.$.X.{ { { { { { { ` 0 > > > > > > > > > > > > & # ",
"> > > > > > > > > > > > > > b h.l.b.b.;.#.#.$.#.$.$...{ { { { { { { { ' q < > > > > > > > > > > # + ",
"> > > > > > > > > > > > > > : , 1.k.b.] $.$.$.$.$.$.#.{ { { { { { { { { { l * : > > > > > > > > : > ",
"> > > > > > > > > > > > > > : : > h >.-.$.#.$.$.$.$.} { ~ { { {  .{ { { { { o 2 > > > > > > > > > > ",
"> > > > > > > > > > > > > > > : > - J ~ ' $.$.#.$.$...' G { { { { { { { { {  .' z > > > > > > > > > ",
"> > > > > > > > > > > > > > > > > > . K D } $.$.$.#. .' e s R { { { { { { { {  .{ Y y > > > > > > > ",
"> > > > > > > > > > > > > > > > > > > < X {  .#.X.{ ' k > > : q Y l x U Y I l a 0 8 q < > > > > > > ",
"O : > > > > > > > > > > > > > > > > > , $ 5 w q w 5 2 > > > > > > > > > > > > > > > > > > > > > > > "
};
