/* XPM */
static char *result[] = {
/* columns rows colors chars-per-pixel */
"50 50 133 2 ",
"   c #67851F",
".  c #62942B",
"X  c #62952B",
"o  c #63962C",
"O  c #64972C",
"+  c #65992D",
"@  c #669A2D",
"#  c #669B2D",
"$  c #679B2D",
"%  c #689D2D",
"&  c #689C2E",
"*  c #689D2E",
"=  c #689E2E",
"-  c #699E2E",
";  c #699F2E",
":  c #69A02F",
">  c #6BA22F",
",  c #6BA230",
"<  c #69A132",
"1  c #6CA330",
"2  c #6DA530",
"3  c #6DA630",
"4  c #6DA631",
"5  c #6EA630",
"6  c #6EA731",
"7  c #6FA831",
"8  c #6FA931",
"9  c #6FA932",
"0  c #6EAB3A",
"q  c #6FAC3B",
"w  c #6DA93C",
"e  c #6EAB3C",
"r  c #6EAC3D",
"t  c #6FAC3D",
"y  c #6DAC3F",
"u  c #70A730",
"i  c #70A931",
"p  c #70A932",
"a  c #70AA32",
"s  c #71AA32",
"d  c #71AB32",
"f  c #71AB33",
"g  c #72AB33",
"h  c #71AC32",
"j  c #71AC33",
"k  c #72AC32",
"l  c #72AC33",
"z  c #70AB34",
"x  c #70AB35",
"c  c #71AC35",
"v  c #70AC37",
"b  c #70AC38",
"n  c #5B9C51",
"m  c #6CAB42",
"M  c #6EAC40",
"N  c #6DAC42",
"B  c #6BAC47",
"V  c #6CAC45",
"C  c #64A44A",
"Z  c #6BAC48",
"A  c #6BAC4A",
"S  c #6CAC48",
"D  c #69AC4F",
"F  c #65A850",
"G  c #66AB56",
"H  c #67AD57",
"J  c #69AD50",
"K  c #69AD52",
"L  c #66AC59",
"P  c #66AC5A",
"I  c #66AD5A",
"U  c #65AD5C",
"Y  c #65AD5F",
"T  c #5BAA76",
"R  c #5FAE74",
"E  c #5DAE7A",
"W  c #5BAE7E",
"Q  c #5CAE7C",
"!  c #5CAE7F",
"~  c #64AD62",
"^  c #63AD64",
"/  c #63AD65",
"(  c #63AE67",
")  c #61AD6A",
"_  c #60AE6F",
"`  c #60AE72",
"'  c #5BAF81",
"]  c #5BAE82",
"[  c #59AE86",
"{  c #59AE87",
"}  c #5AAF87",
"|  c #57AD8B",
" . c #57AE8E",
".. c #57AF8E",
"X. c #57AF8F",
"o. c #59AF89",
"O. c #56AF91",
"+. c #57AF91",
"@. c #56AF93",
"#. c #53AD96",
"$. c #56AF94",
"%. c #54AF99",
"&. c #53AF9E",
"*. c #54AF9C",
"=. c #53B09E",
"-. c #51AFA3",
";. c #4EB0AE",
":. c #52B0A1",
">. c #51B0A3",
",. c #51B0A6",
"<. c #51B0A7",
"1. c #50B0A9",
"2. c #49ABB4",
"3. c #4BAEB5",
"4. c #4EB0B1",
"5. c #4DB0B3",
"6. c #4CB0B6",
"7. c #4BB0B8",
"8. c #4AB1BE",
"9. c #49B1C0",
"0. c #48B1C3",
"q. c #48B1C5",
"w. c #48B1C6",
"e. c #47B1C8",
"r. c #46B1CB",
"t. c #45B1CD",
"y. c #45B1D0",
"u. c #44B1D3",
"i. c #43B1D5",
"p. c #43B1D6",
"a. c #42B1D8",
"s. c #42B2D8",
"d. c #42B2DB",
/* pixels */
"l l l l d d d d d d d l l l l l l l l l l l l l l l l l l l d d d d d d l l l l l l l l l l l l l l ",
"l l l l d d h 7 i d d f l l l l l l l l l l l l l l l l l d d d a s d d f l l l l l l l l l l l l l ",
"l l l l l d a @ ; d d l l l l l l l l l l l l l l l M J Z v d d * , d d l l l l l l l l l l l l l l ",
"l l l l d d 6 # % G W &.5.w.w.u.w.w.w.6.4.&.>.4.9.s.d.d.d.i.>.F O $ a d d l l l l l l l l l l l l l ",
"l l l l d d m | e.d.d.d.d.d.d.d.d.d.d.d.d.d.d.d.d.d.d.d.d.d.d.d.#.w d d l l l l l l l l l l l l l l ",
"l l l l r @.i.d.d.d.d.d.d.d.d.d.d.d.d.d.d.d.d.d.d.d.d.d.d.d.d.d.d.q.^ d d l l l l l l l l l l l l l ",
"l l l I e.d.d.d.d.d.d.d.d.d.d.d.d.d.d.d.d.d.d.d.d.d.d.d.d.d.d.d.d.d.d.;.~ c l l l f d d d l d d l l ",
"l l Y u.d.d.d.d.d.d.d.d.d.d.d.d.d.d.d.d.d.d.d.d.d.d.d.d.d.d.d.d.d.d.d.d.d.t.*.( b d d d g d d d l l ",
"l S y.d.d.d.d.d.d.d.d.d.d.d.d.d.d.d.d.d.d.d.d.d.d.d.d.d.d.d.d.d.d.d.d.d.d.d.d.d.u.&.L s 2 d d d l l ",
"l 1.d.d.d.d.d.d.d.d.d.d.d.d.d.d.d.d.d.d.d.d.d.d.d.d.d.d.d.d.d.d.d.d.d.d.d.d.d.d.d.d.d.3.n 2 d d l l ",
"I d.d.d.d.d.d.d.d.d.d.d.d.d.d.d.d.d.d.d.d.d.d.d.d.d.d.d.d.d.d.d.d.d.d.d.d.d.d.d.d.d.d.d.a.T d d l l ",
"..d.d.d.d.d.d.d.d.d.d.d.d.d.d.d.d.d.d.d.d.d.d.d.d.d.d.d.d.d.d.d.d.d.d.d.d.d.d.d.d.d.d.d.d.s.U d l l ",
"8.d.d.d.d.d.d.d.d.d.d.d.d.d.d.d.d.d.d.d.d.d.d.d.d.d.d.d.d.d.d.d.d.d.d.d.d.d.d.d.d.d.d.d.d.d.7.d l l ",
"w.d.d.d.d.d.d.d.d.d.d.d.d.d.d.d.d.d.d.d.d.d.d.d.d.d.d.d.d.d.d.d.d.d.d.d.d.d.d.d.d.d.d.d.d.d.d.V l d ",
"0.d.d.d.d.d.d.d.d.d.d.d.d.d.d.d.d.d.d.d.d.d.d.d.d.d.d.d.d.d.d.d.d.d.d.d.d.d.d.d.d.d.d.d.d.d.d.I d d ",
"&.d.d.d.d.d.d.d.d.d.d.d.d.d.d.d.d.d.d.d.d.d.d.d.d.d.d.d.d.d.d.d.d.d.d.d.d.d.d.d.d.d.d.d.d.d.d.B d s ",
"P d.d.d.d.d.d.d.d.d.d.d.d.d.d.d.d.d.d.d.d.d.d.d.d.d.d.d.d.d.d.d.d.d.d.d.d.d.d.d.d.d.d.d.d.d.e.d d = ",
"d | d.d.d.d.d.d.d.d.d.d.d.d.d.d.d.d.d.d.d.d.d.d.d.d.d.d.d.d.d.d.d.d.d.d.d.d.d.d.d.d.d.d.d.d. .d 5 X ",
"d d O.d.d.d.d.d.d.d.d.d.d.d.d.d.d.d.d.d.d.d.d.d.d.d.d.d.d.d.d.d.d.d.d.d.d.d.d.d.d.d.d.d.d.s.A d 8 3 ",
"d d d Q d.d.d.d.d.d.d.d.d.d.d.d.d.d.d.d.d.d.d.d.d.d.d.d.d.d.d.d.d.d.d.d.d.d.d.d.d.d.d.d.d.X.d d d d ",
"l l l l ,.d.d.d.d.d.d.d.d.d.d.d.d.d.d.d.d.d.d.d.d.d.d.d.d.d.d.d.d.d.d.d.d.d.d.d.d.d.d.d.e.t l l l l ",
"l l l l R d.d.d.d.d.d.d.d.d.d.d.d.d.d.d.d.d.d.d.d.d.d.d.d.d.d.d.d.d.d.d.d.d.d.d.d.d.d.d./ l l l l l ",
"l l l l ` d.d.d.d.d.d.d.d.d.d.d.d.d.d.d.d.d.d.d.d.d.d.d.d.d.d.d.d.d.d.d.d.d.d.d.d.d.d.*.l l l l l l ",
"l l l l ` d.d.d.d.d.d.d.d.d.d.d.d.d.d.d.d.d.d.d.d.d.d.d.d.d.d.d.d.d.d.d.d.d.d.d.d.d.y.t l l l l l l ",
"l l l l ! d.d.d.d.d.d.d.d.d.d.d.d.d.d.d.d.d.d.d.d.d.d.d.d.d.d.d.d.d.d.d.d.d.d.d.d.d.$.l l l l l l l ",
"l l l l } d.d.d.d.d.d.d.d.d.d.d.d.d.d.d.d.d.d.d.d.d.d.d.d.d.d.d.d.d.d.d.d.d.d.d.d.d.` l l l l l l l ",
"l l l l ] d.d.d.d.d.d.d.d.d.d.d.d.d.d.d.d.d.d.d.d.d.d.d.d.d.d.d.d.d.d.d.d.d.d.d.d.d.} l l l l l l l ",
"l l l l ` d.d.d.d.d.d.d.d.d.d.d.d.d.d.d.d.d.d.d.d.d.d.d.d.d.d.d.d.d.d.d.d.d.d.d.d.d.r.0 d d d d l l ",
"l l l l H d.d.d.d.d.d.d.d.d.d.d.d.d.d.d.d.d.d.d.d.d.d.d.d.d.d.d.d.d.d.d.d.d.d.d.d.d.d.,.x d d d d l ",
"l l l l b p.d.d.d.d.d.d.d.d.d.d.d.d.d.d.d.d.d.d.d.d.d.d.d.d.d.d.d.d.d.d.d.d.d.d.d.d.d.d.-.< 9 d d l ",
"l l l l l :.d.d.d.d.d.d.d.d.d.d.d.d.d.d.d.d.d.d.d.d.d.d.d.d.d.d.d.d.d.d.d.d.d.d.d.d.d.d.d.2.C d d l ",
"l l l l l K s.d.d.d.d.d.d.d.d.d.d.d.d.d.d.d.d.d.d.d.d.d.d.d.d.d.d.d.d.d.d.d.d.d.d.d.d.d.d.d.a.%.y l ",
"l l l l l l } d.d.d.d.d.d.d.d.d.d.d.d.d.d.d.d.d.d.d.d.d.d.d.d.d.d.d.d.d.d.d.d.d.d.d.d.d.d.d.d.d.e.S ",
"l l l l l l l +.d.d.d.d.d.d.d.d.d.d.d.d.d.d.d.d.d.d.d.d.d.d.d.d.d.d.d.d.d.d.d.d.d.d.d.d.d.d.d.d.d.=.",
"l l l l l l l l R u.d.d.d.d.d.d.d.d.d.d.d.d.d.d.d.d.d.d.d.d.d.d.d.d.d.d.d.d.d.d.d.d.d.d.d.d.d.d.d.w.",
"l l l l l l l l l S ,.d.d.d.d.d.d.d.d.d.d.d.d.d.d.d.d.d.d.d.d.d.d.d.d.d.d.d.d.d.d.d.d.d.d.d.d.d.d.w.",
"l l l l l l l l l l l K &.p.d.d.d.d.d.d.d.d.d.d.d.d.d.d.d.d.d.d.d.d.d.d.d.d.d.d.d.d.d.d.d.d.d.d.d.1.",
"l l l l l l l l l l l l l M ' e.d.d.d.d.d.d.d.d.d.d.d.d.d.d.d.d.d.d.d.d.d.d.d.d.d.d.d.d.d.d.d.d.d.E ",
"l l d d d d d d l l l l l l l c ` e.d.d.d.d.d.d.d.d.d.d.d.d.d.d.d.d.d.d.d.d.d.d.d.d.d.d.d.d.d.d.s.N ",
"l g d d a i d d d l l l l l l l l q $.d.d.d.d.d.d.d.d.d.d.d.d.d.d.d.d.d.d.d.d.d.d.d.d.d.d.d.d.d.*.l ",
"l g d d > @ a d d l l l l d l d l l l ` s.d.d.d.d.d.d.d.d.d.d.d.d.d.d.d.d.d.d.d.d.d.d.d.d.d.d.p.B d ",
"l g d s = + 4 d d l l l l d d d d d d l _ d.d.d.d.d.d.d.d.d.d.d.d.d.d.d.d.d.d.d.d.d.d.d.d.d.d.W d d ",
"l g g d a p a l l l l l d d d p d l d l l o.d.d.d.d.d.d.d.d.d.d.d.d.d.d.d.d.d.d.d.d.d.d.d.d.;.z 6 * ",
"l l d d d d d d d l l l g d a & 3 d d l l c <.d.d.d.d.d.d.d.d.d.d.d.d.d.d.d.d.d.d.d.d.d.d.9.e d : . ",
"l l l l d d d l d l l l d d 1 o - s d l l l q 1.d.d.d.d.d.d.d.d.d.d.d.d.d.d.d.d.d.d.d.d.4.N d d 7 6 ",
"l l l l l l l l l l l l d d s p a d d l l l l c ' y.d.d.d.d.d.d.d.d.d.d.d.d.d.d.d.d.r.E c l d d d d ",
"l l l l l l l l l l l l d d d d d d d l l l l l l t E ;.i.d.d.d.d.d.d.d.d.d.d.r.=.( c l l l d j d d ",
"d d d l l l l l l l l l l l l l l l l l l l l l l l l l x D ) ! } [ { } ` ~ N l l l l l l l l l l l ",
"h d d d l l l l l l l l l l l l l l l l l l l l l l l l d d d d d d d l l l l l l l l l l l l l l d ",
"  u d d l l l l l l l l l l l l l l l l l l l l l l l l d k d d d j f l l l l l l l l l l l l l l d "
};
