/* XPM */
static char *result[] = {
/* columns rows colors chars-per-pixel */
"50 50 159 2 ",
"   c #3D5043",
".  c #4D6659",
"X  c #526C6B",
"o  c #567B7C",
"O  c #67851F",
"+  c #63952B",
"@  c #669A2D",
"#  c #689E2E",
"$  c #6A963D",
"%  c #6B9E38",
"&  c #6AA12F",
"*  c #6DA531",
"=  c #6FA831",
"-  c #6EA53F",
";  c #6FA838",
":  c #70A730",
">  c #72AC33",
",  c #70A73B",
"<  c #73AA3A",
"1  c #5E8952",
"2  c #6B9747",
"3  c #659847",
"4  c #679A49",
"5  c #699D4D",
"6  c #649553",
"7  c #6A9D54",
"8  c #64935C",
"9  c #6A9C5B",
"0  c #6DA242",
"q  c #6DA14A",
"w  c #70A644",
"e  c #7BAC45",
"r  c #6CA157",
"t  c #7EA85C",
"y  c #5D8663",
"u  c #5F8B67",
"i  c #659563",
"p  c #679861",
"a  c #699A66",
"s  c #66986B",
"d  c #699F6D",
"f  c #638D73",
"g  c #608B79",
"h  c #689571",
"j  c #67957F",
"k  c #689A7B",
"l  c #7AA665",
"z  c #80B149",
"x  c #87B258",
"c  c #8BB65A",
"v  c #90B962",
"b  c #94B96A",
"n  c #9ABF6E",
"m  c #9EBE78",
"M  c #476986",
"N  c #4C6E8D",
"B  c #4D7186",
"V  c #567287",
"C  c #5C7489",
"Z  c #557889",
"A  c #4A7093",
"S  c #4E769A",
"D  c #4E789D",
"F  c #527897",
"G  c #577996",
"H  c #527CA2",
"J  c #597EA1",
"K  c #5E8883",
"L  c #54808B",
"P  c #5C8394",
"I  c #608A82",
"U  c #618B8D",
"Y  c #659384",
"T  c #669986",
"R  c #64908C",
"E  c #638F90",
"W  c #638E9D",
"Q  c #659499",
"!  c #5680A5",
"~  c #5F8AA6",
"^  c #5B85AC",
"/  c #5D88AE",
"(  c #5E87B0",
")  c #5C8AB4",
"_  c #5F8FB9",
"`  c #5F91BD",
"'  c #638EA2",
"]  c #6087AC",
"[  c #628BAC",
"{  c #6498A2",
"}  c #679AA8",
"|  c #7190AB",
" . c #648DB3",
".. c #618DB8",
"X. c #6592B4",
"o. c #6492BB",
"O. c #6B94B8",
"+. c #6E98BB",
"@. c #779BB9",
"#. c #5E93C3",
"$. c #6396C4",
"%. c #6598C7",
"&. c #6A99C1",
"*. c #669AC8",
"=. c #729DC3",
"-. c #7AA2C6",
";. c #8E8E8F",
":. c #86A5BE",
">. c #89A4BB",
",. c #9CAEBB",
"<. c #ACBEA9",
"1. c #AAC68A",
"2. c #B9CB9E",
"3. c #C2D3AC",
"4. c #C7D9AF",
"5. c #C9D8B3",
"6. c #CEDABC",
"7. c #82A5C2",
"8. c #87AAC7",
"9. c #89A8C1",
"0. c #89ADCC",
"q. c #9AB1C3",
"w. c #9BB6CC",
"e. c #A1B6C4",
"r. c #B2BFC5",
"t. c #B9C1C5",
"y. c #BDC6C9",
"u. c #AFC5D6",
"i. c #AEC4D8",
"p. c #B6C9D7",
"a. c #BACAD4",
"s. c #C0C7C9",
"d. c #C2C9CA",
"f. c #CBCECC",
"g. c #D1D3CF",
"h. c #CDD2D2",
"j. c #CAD6DB",
"k. c #D6D8D4",
"l. c #DBDAD3",
"z. c #D1D6D8",
"x. c #D2DADE",
"c. c #DDDFDB",
"v. c #DEE6CF",
"b. c #E0E6D2",
"n. c #E7E6DE",
"m. c #E9E6DE",
"M. c #EBE8DE",
"N. c #D4DCE3",
"B. c #DBE2E4",
"V. c #E2E6E4",
"C. c #EDEAE1",
"Z. c #E5EAE8",
"A. c #EBECE9",
"S. c #F0EEE5",
"D. c #EEF0EC",
"F. c #F3F2EC",
"G. c #F6F6F1",
"H. c #F8F7F2",
"J. c #FAF9F4",
/* pixels */
"> > > > > > > > > > > > > > > > > > > > > , > > > > > > > > > , = > > > > > > > > > > > > > > > > > ",
"> > > > > > > = = = > = > > > > > > > > > U a > > > 7 k > > > > = = = > > > > > > > > > > > > > > > ",
"> > > > > > > @ & = > > > > > > > > > > > ' X.- > > q o.r > > = @ * > = > > > > > > > > > > > > > > ",
"> > > > > > & @ & = > > > > > > > > > > > W o.T > > 9 o.} > = : @ & = > > > > > > > > > > > > > > > ",
"> > > > > > = > = > > > > > > > > > > > > } o.X.0 > 8 _ W ; > = = = > > > > > > > > > > > > > > > > ",
"> > > > > > = > > > > = > > > > > > > > < ' $.$.9 = 2 P X < > > > > = > > > > > > > > > > > > > > > ",
"> > > > > > > > > > > > > > : > > > > > > f ! ' 1 T W ` ` Q d = = > > > > > > > > > > > > > > > > > ",
"> > > > > > > > > > > > > > > > > > > > > 0 B ^ M $.#.*.*.*.*.{ d e > > > > > > > > > > > > > > > > ",
"> > > > > > > > > > > > > > & > > > > > 9 '  .&.$.$.*.%.*.%.$.*.*.{ < > > > > > > > > = : > > > > > ",
"> > > > > > > > > > > > > & @ : = > > 6 ^  . .$.$.*.$.$.*.#.*.*.$.$.d > > > > > > > = & + : > > > > ",
"> > > > > > > > > > > > > & & > > > > U  . .$.$.*.%.%.*.*.%.-.q.&.*.Q > > > > > > > > * & & > > > > ",
"> > > > > > > > > > > > > > > > = > 7  .X.o.$.*.%.*.%.$.*.#.N.;.@._ L = > > > > > > > > = > > > > > ",
"> > > > > > > > > > > > > > > > > ; P  . .$.*.%.%.%.$.%.*.#.0.i.&.$./   * > > > > > > > > > > > > > ",
"> > > > > > > > > > > > > > > > > 9  . . .$.%.*.%.%.%.#.H A A ` #.%.*.` 4 > > > > > > > > > > > > > ",
"> > > > > > > > > > > > > > > > > j [  . .%.$.%.%.%.#.%.) S D D ^ %.%.%.a , > > > > > > > > > > > > ",
"> > > > > > > > > > > > > > > > > W  . . .%.$.%.%.%.#.^ ` *.^ ) $.%.%.o.0 > > > > > > > > > > > > > ",
"> = @ : > > > > > > > > > > > > , P  . . .%.%.*.$.*.*.$.) S ) $.%.%.#.&.Y > > > > > > > > > > > = & ",
"= * @ & > > > > > > < > > > > > w [  . . .$.$.*.$.*.$.$.$.*.*.$.%.%.X.o.[ ; > > > > > > > > > > = @ ",
"> > > > > > > > > > > > > > > > 8  . . . .o.*.$.$.*.*.*.%.%.*.&.q.z.A.D.t.t > > > > > > > > > > = = ",
"> = > > > > > > > > > > > > > > U  . . . ...$.*.$.*.$.$.*.#.w.c.J.J.J.J.J.v.< > > > > > > > > > = = ",
"> > > > > > > > > > > > > > > 0 [ X. . . . .$.*.%.%.$.*.%.e.M.F.J.J.J.J.J.J.<.; > > > > > > > > > > ",
"> > > > > > > > > > > > > > > r  . . . . .O.$.*.%.*.*.$.=.n.S.J.J.J.J.J.J.Z.&.l > > > > > > > > > > ",
"> > > > > > > > > > > > > > = p [  . . . ...*.*.%.%.$.%.7.C.F.J.J.J.Z.0.B.B.Z.v.< > > > > > > > > > ",
"> > > > > > > > > > > > > > > a  .X. . . .o.*.$.%.%.*.$.d.C.J.J.J.J.w.u.B.J.H.H.v > > > > > > > > > ",
"> > > > > > > > > > > > > > > g  . . . . ...%.*.#.*.$.9.S.C.G.H.J.J.x.G.J.J.D.G.1.> > > > > > > > > ",
"> > > > > > > > > > > > > > > Z  . . . . ...%.$.$.#.$.9.S.C.G.p.a.J.J.J.G.j.-.x.6.> > > > > > > > > ",
"> > > > > > > > > = > = > > : P  . . . . .$.*.*.*...*.=.C.C.V.7.a.J.J.J.J.a.G.J.S.< > > > > > > > > ",
"> > > > > > > > > > : & : = * ^  . . . . .$.$.*.*.) %...n.C.n.A.J.V.j.G.J.J.J.J.G.e > > > > > = > > ",
"> > > > > > > > > > & + # > 0  . . . .]  .*.*.*.*.) $.>.C.C.H.J.G.:.8.B.J.J.J.J.H.x > > = > > > > > ",
"> > > > > > > > > > = : & > 5  . . . .] ..$.$.*.*.] $.s.C.C.J.J.B.a.J.J.H.H.J.H.H.b > > = & = > > > ",
"> > > > > > > > > > > > > > 4  . . . .]  .%.*.$.*.( $.f.C.S.J.J.G.J.G.J.J.J.J.J.J.m > = & + * > > > ",
"> > > > > > > > = > > > > > 3  . . . .]  .$.*.*.$.) $.k.C.A.J.J.J.J.J.J.J.J.J.J.H.v > > = * = > > > ",
"> > z > > > > > > > > > > > w }  . . .^  ...$.%.] $.$.h.C.M.F.J.J.J.H.H.H.H.J.J.H.c > > > > > > > > ",
"> > > > > > > > > > > > > > 0 [  . . .] ^ O.%.o.) *.o.r.C.C.F.J.J.J.J.J.J.J.J.J.S.< > > > , = > > > ",
"> > > > > > > > > > > > > > > P  . . . .J N G C $.%.$.d.C.C.F.J.J.J.J.H.J.J.J.J.b.> > > > > > > > > ",
"> > > > > > > > > > > > > > > o  . . . . .J V C *.%...g.C.C.S.J.J.J.J.H.J.J.J.J.5.> > > > > > > > > ",
"> > > > > > > > > > > > > > > u  . . . . .O.....$.*.$.r.C.C.C.H.J.J.J.J.J.J.J.J.1.> > > > > > > > > ",
"> > > > > > > > > > > > > > > 6 ]  . . . . .$.$.$.*.$.+.C.C.C.S.J.J.J.J.J.J.J.F.z > > > > > > > > > ",
"> > > > > > > > > > > > > > > 5  . . . . . .O.$.$.*.$.*.u.C.C.C.J.J.J.J.J.J.J.3.> > > > > > > > > > ",
"> > > > > > > > > > > > > > > 4  . . . . . . .%.$.*.*.$.o.y.C.C.S.H.J.J.J.J.H.c > > > > > > > > > > ",
"> > > > & @ : > > > > > > > > 6  . . . . . . ...#.*.$.$.$...g.M.C.S.H.J.J.J.4.> > > > > > > > > = > ",
"> > = = & @ & > > > > > > > > y  . . . . . . .o.*.*.*.*.*.&.,.M.C.C.C.S.F.b.z > > > > > > > > > = = ",
"> > > > = > = > > > > > > > 6 ]  . . . . . . . .$.*.%.$.*.$.+.m.C.C.C.C.5.z > > > > > > > > > > = # ",
"> > > = > > > > > > > > > 6 [  . . . . . . . ...$.*.%.*.$.$.| m.C.C.C.2.< > > > > > > > > > > > & @ ",
"> > > > > > > > , > > , g  . . . . . . . . . .O.*.*.*.*.*.%.] l.C.6.n > > > > > > > > > > > > > = = ",
"> > > > > > > > > > % o [  . . . . . . . .^  .o.#.*.*.#.%.$.| r.;.> > > > > > > > > > > > > > > > > ",
"> > > > > > > > > h '  . . . . . . . . . .] ! X.%.*.*.%.$.$.J ~ % > > > > > > > > > > > > > > > > > ",
"> > > > > > > 7 U  . . . . . . . . . .' h w U X.$.%.*.#.$.F W . & > > > > > > > > > > > > > > > > > ",
"> > > > > > , 9 6 i u K R E R Y I R s < > > i [  .o.$.o.o.Z % > = = > > > > > > > > > > > > > > > > ",
"O = > > > > > > > > > > > > > > > > > > > > , 0 q 9 a a 9 $ $ > = > > > > > > > > > > > > > > > > > "
};
