/* XPM */
static char *Sign_resized[] = {
/* columns rows colors chars-per-pixel */
"50 50 139 2 ",
"   c None",
".  c #050F27",
"X  c #070F2A",
"o  c #07102A",
"O  c #0B132B",
"+  c #11162C",
"@  c #14182E",
"#  c #181A2F",
"$  c #1C1C30",
"%  c #291F35",
"&  c #1F273E",
"*  c #242033",
"=  c #2D2435",
"-  c #24293F",
";  c #322637",
":  c #352539",
">  c #372939",
",  c #3A283A",
"<  c #432E3D",
"1  c #44303D",
"2  c #4F303F",
"3  c #47393C",
"4  c #4E3D3E",
"5  c #262A41",
"6  c #2A2E43",
"7  c #322F45",
"8  c #383F58",
"9  c #4E3440",
"0  c #4D384A",
"q  c #533540",
"w  c #583543",
"e  c #523E40",
"r  c #5B3B44",
"t  c #603C45",
"y  c #603748",
"u  c #683D49",
"i  c #534040",
"p  c #584242",
"a  c #654047",
"s  c #6D4349",
"d  c #72414C",
"f  c #734E4B",
"g  c #7D4B4E",
"h  c #78594A",
"j  c #704351",
"k  c #7E4651",
"l  c #7D4E5C",
"z  c #474D66",
"x  c #4C5169",
"c  c #50566D",
"v  c #58556D",
"b  c #54586E",
"n  c #595D72",
"m  c #6A5367",
"M  c #5D6073",
"N  c #616476",
"B  c #824C4F",
"V  c #82514F",
"C  c #8F4750",
"Z  c #824952",
"A  c #8E4D57",
"S  c #8E4D58",
"D  c #914E57",
"F  c #8E5354",
"G  c #925E54",
"H  c #995857",
"J  c #965159",
"K  c #9D555A",
"L  c #9E5B58",
"P  c #A55A5C",
"I  c #AA5D5E",
"U  c #956B52",
"Y  c #9B6C54",
"T  c #9D7054",
"R  c #AD625D",
"E  c #B0615F",
"W  c #B86C5F",
"Q  c #A57457",
"!  c #B57B5C",
"~  c #8D5E6D",
"^  c #985A63",
"/  c #99626C",
"(  c #B56560",
")  c #B96661",
"_  c #B56A60",
"`  c #BD6962",
"'  c #C36C64",
"]  c #C77464",
"[  c #C87564",
"{  c #CD7866",
"}  c #C78362",
"|  c #D08365",
" . c #D48967",
".. c #DA8B68",
"X. c #D29163",
"o. c #E48F6B",
"O. c #E09568",
"+. c #E9926C",
"@. c #E39C68",
"#. c #E89E6A",
"$. c #EDA06C",
"%. c #F5A26E",
"&. c #FCA670",
"*. c #6B718B",
"=. c #7B7F9A",
"-. c #8A7488",
";. c #827F98",
":. c #A07886",
">. c #80849D",
",. c #B28B94",
"<. c #8287A0",
"1. c #8B8EA4",
"2. c #9498AC",
"3. c #9A9DAD",
"4. c #A894A7",
"5. c #9CA0BC",
"6. c #BAA0AB",
"7. c #A3A5B3",
"8. c #A3A1B8",
"9. c #A1A5C1",
"0. c #A6AAC4",
"q. c #A9ADC7",
"w. c #ABAFC9",
"e. c #B0B4C9",
"r. c #B5BACF",
"t. c #BCBBCD",
"y. c #B5BAD0",
"u. c #BABDD3",
"i. c #C3B6C5",
"p. c #CCBCC4",
"a. c #C5C7D6",
"s. c #CCCFDD",
"d. c #D2C7D1",
"f. c #D2D3DE",
"g. c #D8D3DD",
"h. c #CED2E1",
"j. c #D5D6E1",
"k. c #DBDBE5",
"l. c #DFDFE9",
/* pixels */
"                                      @ @ @ + + + O + + + @ @                                       ",
"                                      @ @ @ @ # @ $ @ + @ @ @                                       ",
"                                    O O + # % : 7 : : % $ @ + o                                     ",
"        X o X o o o o O o o o o X o X O O % 9 w y y w 9 % @ o X O o o O o X o X o o X o o o         ",
"      # $ $ $ $ # # $ # $ # $ # $ $ # # * 1 u k S S Z u 9 % @ # # & # # $ # $ $ $ $ $ $ # $ #       ",
"      3 4 4 4 4 4 4 i 4 4 4 4 4 4 4 4 4 p f U R _ _ R G s p e e 4 4 4 4 4 4 4 4 4 4 4 4 4 4 3       ",
"O & 4 h U T T T T T T T Y Q Q Y T T T T Q ! }  .....X.} ! T U T T T T T Y T Q Y T T T Q T U h 4 * o ",
". # i Y X.@.$.@.@.@.@.@.@.O.@.@.@.@.@.O.$.@.$.$.$.%.$.$.$.$.$.X.@.@.O.@.@.@.@.@.@.@.@.@.$.X.U i & o ",
"O $ i Q O.&.&.%.%.%.%.%.%.%.%.%.%.%.%.%.%.%.%.%.%.%.%.%.%.%.%.%.%.%.%.&.%.%.%.%.%.%.%.&.&.O.Y 4 # O ",
"O $ 3 G { +.+.+.+.o.o.+.o.o.o.o.o.+.o.o.o.o.o.o.O...o...o.o.o.o.o.o.o.o.o.o.o.o.o.o.+.+.+.| G 4 $ O ",
"+ $ 1 B W { { [ ] ] ] ] [ [ [ ] [ [ [ [ ' [ [ [ [ [ [ ] ] ] [ [ [ [ [ [ [ [ [ [ [ [ [ { { W V 1 # O ",
"O # < g I ' ` ( E E W E ( W E E ( E ( ( E ( ( E ( ( ( ( ( ( ( ( E ( ( E ( ( E ( ( ( ( ` ` R g 1 $ O ",
"O # < g R ) E I P P P P P P P P P P P P P P P P P P P P P P P P P P P P P P P P P P P E ) R g < $ + ",
"+ $ 1 g I W I K J D J D J D J J J J J J J D D J J J D J J J J J J J D J D J J J J J K I ( R g < # O ",
"O $ 1 g R W P J D A A A D A A A A A D D A A A A A S A A A S S S A A A A A A A A A A J P ( R g 1 $ O ",
"O # 1 B R E P J A A A A D A A A A A A A A A A A A A A A A A A S A A A A A A A A A A J P ) R g 1 $ + ",
"O $ 1 Z R ( P J A A A A A A A A A A A A A A A A A A A A A A A A A A A A A A A A A A J P ( R g 1 % O ",
"O $ 1 g R ( P J A A A D S A A A A A A A D A S A D A A A A A A A A D A D A A A A A A J P ( R g 1 # O ",
"O $ 1 g R ( P J A A A A D A A D A A A A A A A D A D A J D S A A A S A A A A A A A A J P ( R g 1 # O ",
"O $ 1 g R ( P J A A A A A D A A A D A A D A A A A A A A A A A A A D A D A D S D A S J P ( R g 1 $ O ",
"O $ 1 g R ( P J A A A A A S D D D A A D A A D S A A A S A A A A A A S A D A D A A A J P ( I g 1 $ O ",
"O $ 1 g R ) I J A A A A A A A A A A A A D S A A D A D A A D A D D A D A A A A S A A J P ( E g 1 $ O ",
"O $ 1 g E ( P D A A A A A A A A D D A D A A A A A A A A A A A A A A A D A A A A A A D P ) R g 1 $ O ",
"O $ 1 g I ( P D A A A A A A A A A S A A A D A D D A A A A A A J D A A S A D D A A A J P ( R g 1 $ O ",
"O $ 1 g R ( I J A A A A A A A A A A A A S A A A A A A A A A S A A A A S D A A A A A J P ( R g 1 % O ",
"O $ 1 g R ( P J A A A A A A A A S D A A A A A A J A A A A A D A A A D A A A A A A A J I ( R g 1 # O ",
"O $ 1 g R ( P J A A A A A A A A D A A A A D A A A A A A A A A A A A A A D A A A A A J P ) R g 1 $ O ",
"O * 1 g R ( P J A A A A A A A A A A A A A A A A A A A A A A A A A A A A A A A A A A J P ( R g 1 $ O ",
"O $ 1 g R ( P J A A A A A A A S A A A A A A A A A A A A A A A A A A A A A A A S A A A P ( R g 1 $ O ",
"O $ 1 g R ( I J A A A A S D A D D A D A A J A A A S A J D J A A D D S D A S A S A A J P _ R g 1 $ O ",
"O $ 1 g E ) ( K K K K K K K K K K K K K K K K K J K K K K J J K K K K K K K K K K K P E ) R g 1 $ O ",
"O $ 1 g ( ' ` ( E E E E E E E E E E E E E E E I ( I I E ( E E ( E E E E E E E E E E ( ) ' ( B 1 $ O ",
"O $ 1 g R ` ` ( ( ( ( ( ( ( ( ( _ ( ( ( ( ( W W E W W E W W E ( E W E ( ( _ ( ( ( ( _ ` ` R g , $ O ",
"O $ , s F L L H H H H L H H H H H H H H L L P P P P P P L H H H L H H H H H H H H H H H L F s 1 $ O ",
"    > q r t t p r p t t t t r p a r t t a f g B B B B g s u t t t t t t r a a r r a r a r r 9 >     ",
"      = = = = = = = ; = = = = ; = = = = ; , 2 r a a t 2 < ; = = = = = = = = = = = = = = = = =       ",
"        @ @ @ @ + @ @ @ @ @ @ @ @ + O + # = < w t t w 1 ; # O O @ + + @ + + @ + @ @ O @ @ @         ",
"          o o O       o o o       o . . + % q u u u u 2 % + . . O       O o O       O O O           ",
"                                    O O $ , r k C C Z y , $ O O                                     ",
"                                    - - 7 0 j C K J C u q 7 5 -                                     ",
"                                    8 x v m l A D C A l m v x 8                                     ",
"                                + - x *.=.-.~ A C C A ~ -.;.*.z - +                                 ",
"                                + - c >.8.4.:./ ^ ^ / :.4.8.>.c 5 +                                 ",
"                                + 6 n 2.t.i.6.,.,.,.,.6.i.t.2.n - +                                 ",
"                                O 6 N 7.s.g.d.p.p.p.p.d.j.s.7.N 6 +                                 ",
"                                + 6 N 7.f.l.l.j.g.g.g.k.l.j.7.N 6 +                                 ",
"                                + 6 M 3.a.h.h.s.h.s.s.h.j.a.3.M 6 O                                 ",
"                                + 5 b 1.e.u.y.y.y.y.y.y.u.e.1.b - +                                 ",
"                                + 5 x >.8.w.q.0.0.0.0.0.w.9.>.x - +                                 ",
"                                + 5 x =.5.0.0.9.9.9.9.9.0.5.=.x - +                                 "
};
