/* XPM */
static char *result[] = {
/* columns rows colors chars-per-pixel */
"50 50 244 2 ",
"   c #6D757A",
".  c #3B688C",
"X  c #316894",
"o  c #326995",
"O  c #326996",
"+  c #346A96",
"@  c #346B96",
"#  c #346B97",
"$  c #3F6D93",
"%  c #3E6E94",
"&  c #346B98",
"*  c #356C99",
"=  c #356D9A",
"-  c #366E9A",
";  c #376E9B",
":  c #356D9C",
">  c #346E9C",
",  c #366F9E",
"<  c #36709E",
"1  c #36709F",
"2  c #37719F",
"3  c #3A709A",
"4  c #3F719A",
"5  c #38709D",
"6  c #38719F",
"7  c #39729F",
"8  c #3A729F",
"9  c #3B739F",
"0  c #3F749E",
"q  c #3670A0",
"w  c #3671A0",
"e  c #3771A0",
"r  c #3872A0",
"t  c #3872A1",
"y  c #3B73A0",
"u  c #3A74A1",
"i  c #3B74A1",
"p  c #3B74A2",
"a  c #3F75A0",
"s  c #3E75A1",
"d  c #3D75A3",
"f  c #3D76A3",
"g  c #3E76A2",
"h  c #3F77A4",
"j  c #417197",
"k  c #457094",
"l  c #4B7392",
"z  c #4F7490",
"x  c #40729B",
"c  c #40739D",
"v  c #40759F",
"b  c #41759F",
"n  c #43769E",
"m  c #45779E",
"M  c #44769F",
"N  c #4A7598",
"B  c #4A779C",
"V  c #4B779C",
"C  c #4A789D",
"Z  c #48789F",
"A  c #517592",
"S  c #537B97",
"D  c #577895",
"F  c #5D7A91",
"G  c #567C9D",
"H  c #5D7E9A",
"J  c #5A7E9D",
"K  c #5D7F9C",
"L  c #4075A0",
"P  c #4176A0",
"I  c #4177A1",
"U  c #4276A1",
"Y  c #4077A3",
"T  c #4177A3",
"R  c #4277A2",
"E  c #4377A2",
"W  c #4477A1",
"Q  c #4577A1",
"!  c #4077A4",
"~  c #4678A0",
"^  c #4679A2",
"/  c #4278A5",
"(  c #4279A5",
")  c #4479A4",
"_  c #4479A5",
"`  c #457AA5",
"'  c #467AA5",
"]  c #477BA5",
"[  c #457BA6",
"{  c #467AA6",
"}  c #477CA7",
"|  c #4979A0",
" . c #487AA1",
".. c #4A7AA1",
"X. c #497BA2",
"o. c #4A7BA3",
"O. c #4F7CA0",
"+. c #4E7CA2",
"@. c #4F7DA3",
"#. c #497BA5",
"$. c #487CA5",
"%. c #4B7DA5",
"&. c #497DA6",
"*. c #4B7DA6",
"=. c #4C7EA7",
"-. c #4F7FA7",
";. c #457BA8",
":. c #457CA8",
">. c #467CA8",
",. c #477DA8",
"<. c #467CA9",
"1. c #477EAA",
"2. c #487DA8",
"3. c #497DA8",
"4. c #487DA9",
"5. c #487EA9",
"6. c #497EA9",
"7. c #497FA9",
"8. c #4B7EA8",
"9. c #4B7FA8",
"0. c #487EAA",
"q. c #497EAA",
"w. c #487EAB",
"e. c #4A7FAA",
"r. c #4B7FAA",
"t. c #4A7FAB",
"y. c #4C7FA8",
"u. c #507DA2",
"i. c #768189",
"p. c #648096",
"a. c #4F80A6",
"s. c #4B80AB",
"d. c #4E80A9",
"f. c #4C80AA",
"g. c #4D81AB",
"h. c #4E81AA",
"j. c #4E81AB",
"k. c #4E82AA",
"l. c #4F82AC",
"z. c #5380A5",
"x. c #5381A5",
"c. c #5581A6",
"v. c #5A80A0",
"b. c #5B81A2",
"n. c #5C82A2",
"m. c #5F84A3",
"M. c #5882A4",
"N. c #5883A7",
"B. c #5F84A4",
"V. c #5F85A4",
"C. c #5E85A6",
"Z. c #5F86A7",
"A. c #5181A9",
"S. c #5281A8",
"D. c #5382A8",
"F. c #5383A9",
"G. c #5182AA",
"H. c #5082AB",
"J. c #5282AA",
"K. c #5283AB",
"L. c #5383AB",
"P. c #5483A9",
"I. c #5483AA",
"U. c #5384AB",
"Y. c #5784A9",
"T. c #5585AB",
"R. c #5685AB",
"E. c #5183AC",
"W. c #5283AC",
"Q. c #5384AC",
"!. c #5585AC",
"~. c #5585AD",
"^. c #5786AD",
"/. c #5D87A9",
"(. c #5E87A9",
"). c #5986AC",
"_. c #5A87AD",
"`. c #5F88AB",
"'. c #5B88AC",
"]. c #5A88AD",
"[. c #5B88AD",
"{. c #5B89AE",
"}. c #5C88AC",
"|. c #5D88AD",
" X c #5C89AD",
".X c #5E89AD",
"XX c #5C89AE",
"oX c #5D89AE",
"OX c #5E8AAE",
"+X c #5F8AAE",
"@X c #6084A3",
"#X c #6085A5",
"$X c #6087A8",
"%X c #6188A8",
"&X c #6289A9",
"*X c #6389A9",
"=X c #6189AA",
"-X c #6089AB",
";X c #628AAA",
":X c #628AAB",
">X c #618AAC",
",X c #608AAD",
"<X c #608BAD",
"1X c #618BAD",
"2X c #628AAC",
"3X c #628BAC",
"4X c #638BAC",
"5X c #638BAD",
"6X c #608AAE",
"7X c #608BAE",
"8X c #618BAE",
"9X c #608BAF",
"0X c #618BAF",
"qX c #628BAE",
"wX c #648BAC",
"eX c #638CAD",
"rX c #628CAE",
"tX c #638CAE",
"yX c #628CAF",
"uX c #638CAF",
"iX c #638DAF",
"pX c #648CAD",
"aX c #648DAD",
"sX c #658DAD",
"dX c #648CAE",
"fX c #648DAE",
"gX c #658DAE",
"hX c #648CAF",
"jX c #648DAF",
"kX c #658DAF",
"lX c #668DAE",
"zX c #658EAE",
"xX c #658EAF",
"cX c #668EAE",
"vX c #668EAF",
"bX c #678EAF",
"nX c #638DB0",
"mX c #658DB0",
"MX c #658EB0",
"NX c #668EB0",
"BX c #668FB0",
"VX c #678FB0",
"CX c #678FB1",
"ZX c None",
/* pixels */
"ZXZXZXZXZXZXZXZXZXZXZXZXZXZXZXZXZXZXZXZXZXZXZXZXZXZXZXZXZXZXZXZXZXZXZXZXZXZXZXZXZXZXZXZXZXZXZXZXZXZX",
"ZXZXZXZXZXZXZXZXZXZXZXZXZXZXZXZXZXZXZXZXZXZXZXZXZXZXZXZXZXZXZXZXZXZXZXZXZXZXZXZXZXZXZXZXZXZXZXZXZXZX",
"ZXZXZXZXZXZXZXZXZXZXZXZXZXZXZXZXZXZXZXZXZXZXZXZXZXZXZXZXZXZXZXZXZXZXZXZXZXZXZXZXZXZXZXZXZXZXZXZXZXZX",
"ZXZXZXZXZXZXZXZXZXZXZXZXZXZXZXZXZXZXZXZXZXZXZXZXZXZXZXZXZXZXZXZXZXZXZXZXZXZXZXZXZXZXZXZXZXZXZXZXZXZX",
"ZXZXZXZXZXZXZXZXZXZXZXZXZXZXZXZXZXZXZXZXZXZXZXZXZXZXZXZXZXZXZXZXZXZXZXZXZXZXZXZXZXZXZXZXZXZXZXZXZXZX",
"ZXZXZXZXZXZXZXZXZXZXZXZXZXZXZXZXZ.ZXZXZXZXZXZXZXZXZXZXZXZXZXZXZXZXZXZXZXZXZXZXZXZXZXZXZXZXZXZXZXZXZX",
"ZXZXZXZXZXZXZXZXZXZXZXZXZXZXZXZXu..XZXZXZXZXZXZXZXZXZXZXZXZXZXZXZXx.>XZXZXZXZXZXZXZXZXZXZXZXZXZXZXZX",
"ZXZXZXZXZXZXZXZXZXZXZXZXZXZXZXZX .T.eXZXZXZXZXZXZXZXZXZXZXZXZXZXZX}.gXZXZXZXZXZXZXZXZXZXZXZXZXZXZXZX",
"ZXZXZXZXZXZXZXZXZXZXZXZXZXZXZXZXZX9. X%XZXZXZXZXZXZXZXZXZXZXZXZXF.tX:XZXZXZXZXZXZXZXZXZXZXZXZXZXZXZX",
"ZXZXZXZXZXZXZXZXZXZXZXZXZXZXZXZXZXZ a.J ZXZXZXZXZXZXZXZXZXZXZXH Y.pXZXZXZXZXZXZXZXZXZXZXZXZXZXZXZXZX",
"ZXZXZXZXZXZXZXZXZXZXZXZXZXZXZXZXZXZX$ c.@X;X=X4X4X3X5X2X2X&Xm.G M.D ZXZXZXZXZXZXZXZXZXZXZXZXZXZXZXZX",
"ZXZXZXZXZXZXZXZXZXZXZXZXZXZXZXZXZXQ -.OXvXxXgXNXMXmXNXMXkXxXkXjX*XZXZXZXZXZXZXZXZXZXZXZXZXZXZXZXZXZX",
"ZXZXZXZXZXZXZXZXZXZXZXZXZXZXZXZX[ H.OXjXxXfXdXxXkXjXNXjXkXNXjXkXvXeXZXZXZXZXZXZXZXZXZXZXZXZXZXZXZXZX",
"ZXZXZXZXZXZXZXZXZXZXZXZXZXZXZXc g.].jXkXMXkXkXkXgXNXmXMXNXkXxXvXjXjXwXZXZXZXZXZXZXZXZXZXZXZXZXZXZXZX",
"ZXZXZXZXZXZXZXZXZXZXZXZXZXZXZX4.W.8XgXfXNXjXjXNXdXxXkXjXMXjXjXMXjXfXkX$XZXZXZXZXZXZXZXZXZXZXZXZXZXZX",
"ZXZXZXZXZXZXZXZXZXZXZXZXZXZXx w.j.1XkXkXkXkXjXkXtXxXMXhXNXkXjXvXjXjXfXeXS ZXZXZXZXZXZXZXZXZXZXZXZXZX",
"ZXZXZXZXZXZXZXZXZXZXZXZXZXZX<.s.j.,XdXkXjXjXMXjXdXdXMXjXjXMXjXjXkXtXdXkXV.ZXZXZXZXZXZXZXZXZXZXZXZXZX",
"ZXZXZXZXZXZXZXZXZXZXZXZXZX. q.t.g.7XxXkXMXMXmXMXMXjXxXMXkXkXfXgXzXfXjXMXwXZXZXZXZXZXZXZXZXZXZXZXZXZX",
"ZXZXZXZXZXZXZXZXZXZXZXZXZX4 0.t.H.7XxXjXNXkXjXNXjXjXkXkXdXgXeXpXgXdXfXjXkXK ZXZXZXZXZXZXZXZXZXZXZXZX",
"ZXZXZXZXZXZXZXZXZXZXZXZXZX>.j.W.XXjXMXkXMXMXkXMXMXkXNXxXjXkXkXkXxXkXkXjXjXB.ZXZXZXZXZXZXZXZXZXZXZXZX",
"ZXZXZXZXZXZXZXZXZXZXZXZXT r.Q.XXuXMXkXkXNXkXmXNXkXkXkXkXkXgXpXgXgXfXNXkXMX2XZXZXZXZXZXZXZXZXZXZXZXZX",
"ZXZXZXZXZXZXZXZXZXZXZXZX2.E.{.iXkXmXmXjXkXkXjXMXjXjXNXkXtXgXfXdXkXfXfXxXMXdXb.ZXZXZXZXZXZXZXZXZXZXZX",
"ZXZXZXZXZXZXZXZXZXZXZX1.l.^.yXkXNXMXMXMXkXkXkXNXkXkXNXkXjXjXxXkXlXpXgXgXxXNXjXC.ZXZXZXZXZXZXZXZXZXZX",
"ZXZXZXZXZXZXZXZXZXZX` g.~.0XkXjXxXkXjXMXjXjXjXjXMXkXkXkXkXvXxXtXfXgXdXgXgXgXxXdXZXZXZXZXZXZXZXZXZXZX",
"ZXZXZXZXZXZXZXZXZXZXq.d.OX0XnXNXNXMXNXNXMXNXMXNXkXjXNXjXkXNXjXfXkXjXgXpXeXgXgXkX&XZXZXZXZXZXZXZXZXZX",
"ZXZXZXZXZXZXZXZXZX} 3...7X9XiXkXNXNXMXNXdXxXkXbXMXkXMXMXkXMXkXMXNXkXkXkXkXkXxXN./.ZXZXZXZXZXZXZXZXZX",
"ZXZXZXZXZXZXZXZXU 0.#.S.XXjXkXMXjXkXkXhXxXvXdXgXvXvXMXjXNXMXkXjXkXjXvXdXdXvXkXz.@.-XZXZXZXZXZXZXZXZX",
"ZXZXZXZXZXZXZXZX;.6.M _.jXNXjXjXNXjXjXjXxXfXgXeXfXkXNXkXjXNXjXjXjXkXgXgXpXsXgX<X~ Y.#XZXZXZXZXZXZXZX",
"ZXZXZXZXZXZXZXn 1.T b XXkXmXMXkXMXmXkXNXkXfXkXkXjXkXkXMXjXkXkXjXkXxXfXgXpXpXgXfX+.X.`.ZXZXZXZXZXZXZX",
"ZXZXZXZXZXZXZX] :.; ) XXxXNXkXMXNXkXkXjXkXkXgXfXkXNXjXNXjXjXNXjXjXkXkXgXsXpXgXgX(.m R.ZXZXZXZXZXZXZX",
"ZXZXZXZXZXZXZX$.h O ) XXjXkXkXjXmXjXjXNXkXtXgXdXtXMXjXMXMXjXMXkXMXNXkXfXkXkXkXxXpXC y.ZXZXZXZXZXZXZX",
"ZXZXZXZXZXZXZXR t X ' 0XkXNXkXMXNXkXjXkXkXkXgXdXkXMXxXNXkXNXNXkXkXkXkXvXgXdXvXkXgXO.&.ZXZXZXZXZXZXZX",
"ZXZXZXZXZXZXZX3 w o *.jXjXMXjXjXMXjXkXNXjXdXgXdXfXMXjXMXkXjXMXjXkXxXkXdXpXpXgXgXgXB ^ ZXZXZXZXZXZXZX",
"ZXZXZXZXZXZXZXZXj @ =.NXNXNXMXNXMXMXkXkXvXNXkXvXvXkXjXNXkXjXNXjXjXjXkXfXgXpXaXgXgXN A ZXZXZXZXZXZXZX",
"ZXZXZXZXZXZXZXZXi.l _ uXkXNXkXkXNXkXjXjXkXgXsXpXgXvXjXMXMXjXMXmXkXNXkXjXkXkXjXxXkXF   ZXZXZXZXZXZXZX",
"ZXZXZXZXZXZXZXZXZXz ( yXkXMXNXkXMXNXkXNXfXfXkXgXpXvXvXxXkXMXNXkXkXjXkXxXgXdXvXkXxXp.ZXZXZXZXZXZXZXZX",
"ZXZXZXZXZXZXZXZXZX% g OXxXkXxXVXxXMXCXkXjXtXkXxXlXpXgXcXgXjXMXjXjXNXkXdXgXdXdXgXgXn.ZXZXZXZXZXZXZXZX",
"ZXZXZXZXZXZXZXZXZXZX7 I.NXNXjXNXNXMXNXNXMXkXjXjXvXgXsXlXgXgXNXkXdXNXkXgXfXfXgXkXkXv.ZXZXZXZXZXZXZXZX",
"ZXZXZXZXZXZXZXZXZXZX- { OXNXNXjXMXNXNXMXNXNXxXdXjXxXgXsXsXgXgXkXNXxXdXgXfXtXgXgX,XZXZXZXZXZXZXZXZXZX",
"ZXZXZXZXZXZXZXZXZXZX& t h.0XMXNXjXjXMXMXxXNXMXNXkXkXjXxXgXgXgXgXvXxXkXkXkXxXxXiXD.ZXZXZXZXZXZXZXZXZX",
"ZXZXZXZXZXZXZXZXZXZX# 1 ! L.qXMXBXkXjXjXjXMXjXjXNXNXkXMXMXxXkXfXfXgXkXdXgXpXcX,X%.ZXZXZXZXZXZXZXZXZX",
"ZXZXZXZXZXZXZXZXZXZXZX> e d G.7XkXkXNXMXMXMXMXNXMXjXjXNXkXjXNXkXjXkXkXdXvXkXiX).o.ZXZXZXZXZXZXZXZXZX",
"ZXZXZXZXZXZXZXZXZXZXZX* r e p 8.oXjXjXjXMXNXjXMXNXkXjXjXMXjXkXkXkXNXxXkXkXyXK.f.| ZXZXZXZXZXZXZXZXZX",
"ZXZXZXZXZXZXZXZXZXZXZXZX5 e q t / J.+XjXNXNXMXkXMXNXNXjXkXjXMXxXNXxX1X[.!.h.e.y.k ZXZXZXZXZXZXZXZXZX",
"ZXZXZXZXZXZXZXZXZXZXZXZXZX= < w w u Y =.A.P.|.6X8XrXjXrXuXrX8X'.R.U.k.7.,.5.=.V ZXZXZXZXZXZXZXZXZXZX",
"ZXZXZXZXZXZXZXZXZXZXZXZXZXZXZX+ : , < < 2 6 y s L a P v W E I 9 8 i f d y 0 ZXZXZXZXZXZXZXZXZXZXZXZX",
"ZXZXZXZXZXZXZXZXZXZXZXZXZXZXZXZXZXZXZXZXZXZXZXZXZXZXZXZXZXZXZXZXZXZXZXZXZXZXZXZXZXZXZXZXZXZXZXZXZXZX",
"ZXZXZXZXZXZXZXZXZXZXZXZXZXZXZXZXZXZXZXZXZXZXZXZXZXZXZXZXZXZXZXZXZXZXZXZXZXZXZXZXZXZXZXZXZXZXZXZXZXZX",
"ZXZXZXZXZXZXZXZXZXZXZXZXZXZXZXZXZXZXZXZXZXZXZXZXZXZXZXZXZXZXZXZXZXZXZXZXZXZXZXZXZXZXZXZXZXZXZXZXZXZX",
"ZXZXZXZXZXZXZXZXZXZXZXZXZXZXZXZXZXZXZXZXZXZXZXZXZXZXZXZXZXZXZXZXZXZXZXZXZXZXZXZXZXZXZXZXZXZXZXZXZXZX"
};
