/* XPM */
static char *Blue_orb_resized[] = {
/* columns rows colors chars-per-pixel */
"50 50 183 2 ",
"   c None",
".  c #130C22",
"X  c #131026",
"o  c #14142B",
"O  c #14182E",
"+  c #151F35",
"@  c #152339",
"#  c #16293F",
"$  c #173146",
"%  c #173549",
"&  c #18354A",
"*  c #15384D",
"=  c #18394E",
"-  c #193F52",
";  c #163E52",
":  c #154156",
">  c #194256",
",  c #19465A",
"<  c #174A5E",
"1  c #1B4B5E",
"2  c #164559",
"3  c #164D61",
"4  c #1B4E61",
"5  c #1B5163",
"6  c #1B5568",
"7  c #1D5B6D",
"8  c #17586D",
"9  c #1C5D71",
"0  c #175D71",
"q  c #235E70",
"w  c #176074",
"e  c #1E6374",
"r  c #1B677A",
"t  c #1E6B7C",
"y  c #21697B",
"u  c #1D6D80",
"i  c #1D7187",
"p  c #1E788A",
"a  c #1C7E95",
"s  c #2A7585",
"d  c #217C8B",
"f  c #1E8294",
"g  c #1D8A9B",
"h  c #1B8698",
"j  c #228393",
"k  c #228C9A",
"l  c #358996",
"z  c #1E8BA2",
"x  c #1E93AC",
"c  c #1D97A8",
"v  c #1D9DBA",
"b  c #2292A2",
"n  c #229CAF",
"m  c #2A9FAF",
"M  c #3092A0",
"N  c #1FA5B5",
"B  c #25A0AE",
"V  c #25A7B6",
"C  c #26A9B7",
"Z  c #21A4B9",
"A  c #25ACB9",
"S  c #37ADB9",
"D  c #449EA7",
"F  c #40A2AC",
"G  c #53B4BA",
"H  c #1FA9C3",
"J  c #1BA6C8",
"K  c #1CACCD",
"L  c #19AFD6",
"P  c #16B0DF",
"I  c #1CBBDE",
"U  c #25B5C6",
"Y  c #27B8C6",
"T  c #2DB8C6",
"R  c #23BBD1",
"E  c #20BDD9",
"W  c #008EE8",
"Q  c #0093E9",
"!  c #0997E9",
"~  c #039BEA",
"^  c #0B9BE9",
"/  c #139CE9",
"(  c #1B9EE8",
")  c #05A4ED",
"_  c #08A6ED",
"`  c #0CAAEA",
"'  c #1AAAEC",
"]  c #13B2E6",
"[  c #18B7E3",
"{  c #10B3EC",
"}  c #16BDED",
"|  c #0DB4F2",
" . c #13B6F1",
".. c #2AA4E8",
"X. c #28A5E9",
"o. c #3AAAE8",
"O. c #33B4EC",
"+. c #20BCF1",
"@. c #4BBCC3",
"#. c #45B0E8",
"$. c #4EB6E9",
"%. c #52B9E9",
"&. c #40ACE8",
"*. c #67BDE8",
"=. c #27C3D2",
"-. c #28C5D3",
";. c #27C8D7",
":. c #29C9D7",
">. c #27C7D8",
",. c #30CBD8",
"<. c #3DC6D1",
"1. c #1CC6EC",
"2. c #15C3F6",
"3. c #1CCEF5",
"4. c #14C4F8",
"5. c #19C4F5",
"6. c #1BD2FA",
"7. c #25CEE3",
"8. c #21CDEA",
"9. c #29D5E5",
"0. c #29D7E8",
"q. c #26D9EF",
"w. c #2ADAEB",
"e. c #30DDEB",
"r. c #31D7E3",
"t. c #23C9F5",
"y. c #34C5F2",
"u. c #22D6F4",
"i. c #25DDF4",
"p. c #29DCF4",
"a. c #22DCFB",
"s. c #26D4F8",
"d. c #33D5F8",
"f. c #27E1F7",
"g. c #2DE0F3",
"h. c #37E8F7",
"j. c #3EEAF6",
"k. c #30E0F8",
"l. c #36E5F8",
"z. c #53D3D8",
"x. c #64C9CB",
"c. c #6EDEDE",
"v. c #7AD9D6",
"b. c #51C6EE",
"n. c #41D9E3",
"m. c #48DAF7",
"M. c #4ED0F3",
"N. c #6FC4E8",
"B. c #74CBEA",
"V. c #71D3EE",
"C. c #69DCF3",
"Z. c #41E5EF",
"A. c #59E4E9",
"S. c #42E7FB",
"D. c #58EAF8",
"F. c #4DF0FC",
"G. c #54F1FA",
"H. c #75EDEC",
"J. c #73EEF8",
"K. c #66F3FB",
"L. c #74F4F5",
"P. c #91E6DE",
"I. c #81C9E8",
"U. c #90D2E8",
"Y. c #96D8E9",
"T. c #ABDFE8",
"R. c #89E8E2",
"E. c #90E1EE",
"W. c #91F2EC",
"Q. c #84E8F3",
"!. c #8FF6F3",
"~. c #84F4F7",
"^. c #9AF1F2",
"/. c #A2EFE5",
"(. c #A9ECED",
"). c #B0E6EA",
"_. c #BCE9E9",
"`. c #ABF5EB",
"'. c #BBF5EB",
"]. c #B5F4E8",
"[. c #A8F6F0",
"{. c #C2EFE9",
"}. c #C6F4E9",
/* pixels */
"                            . . . . . . . . . . . . . . . . . . . . . .                             ",
"                            X X . X X X X X X X X . X X X X X . X X . X                             ",
"                            O o O O o O O O O O O O O O O O O O O O O O                             ",
"                            @ @ @ @ @ @ @ @ @ @ @ @ @ @ @ @ @ @ @ @ @ @                             ",
"                            $ % % % * % % * % % & & & & % & & & % & $ $                             ",
"                          * : 2 < 3 3 3 3 3 3 5 4 4 4 5 5 4 4 4 1 1 , > ;                           ",
"                        % : 3 8 0 w r r t t t t t t t y y y t t y e 7 5 > &                         ",
"                    o @ * 3 0 u p h h g g g g g k k k k b k k k j d u q 1 = @ o                     ",
"                  . + # ; 6 r f c c N A N A A C C C C C A A A C V b d t 6 - @ o X                   ",
"                . o + $ , 7 p z V U =.:.;.>.>.-.=.=.-.-.:.:.:.=.Y Z b d 9 , $ + O .                 ",
"              o o + # = 1 y j n Y ,.r.e.e.e.w.w.9.0.0.0.w.w.w.9.>.U n j r 4 = $ + O O               ",
"              @ $ $ = , y s M S <.n.Z.j.h.h.l.g.g.q.f.f.f.f.i.w.7.R Z z i 9 , ; $ # @               ",
"            % * = 2 5 y y l D G z.A.D.G.F.F.l.k.f.6.a.a.6.f.a.6.8.E H b a u 9 4 > - = &             ",
"          * : 3 6 9 y s l F G x.c.H.L.L.D.F.S.d.6.6.6.4.6.6.6.6.1.I K v z a i r q 6 1 > =           ",
". X O @ $ : 3 0 r p j M F G x.v.R.W.!.~.J.C.m.d.8.5.4.4.4.4.4.2.} [ L J v x z j p t y 1 > $ @ O . . ",
". . O @ $ 2 8 u a z B S @.x.P.P.^.`.[.^.Q.C.M.y.5. .| | | | | { { ] ] L K J Z n b j y 7 , $ @ O X . ",
". X O @ * 3 w p c C T <.z.c.R.(.].'.'.(.E.V.b.O.' ` ) ) ) ) ) ) ` ` ] [ I E R U V b d e 1 & @ O . . ",
". X O @ % 3 w h c Y ,.n.A.H.W.`.'.}.{.).Y.B.%.O.' _ ~ Q Q ~ ~ ~ _ ` { } 1.8.7.>.U B j r 1 & @ O X . ",
". X o @ % 3 r h N =.r.Z.D.L.!.[.].{._.).U.*.$.o.( ! Q Q Q Q Q ~ ~ _  .4.3.u.w.9.=.C k y 1 & @ O X . ",
". X o @ % 3 t g N -.e.j.G.L.~.^.).).T.Y.I.*.#.../ Q Q W W W Q Q ~ _ | 4.6.a.i.w.-.A k y 5 & @ O X . ",
". X o @ % 4 r g N >.g.j.F.D.J.Q.E.Y.U.B.*.%.o.( / Q W W W W W Q ~ _ | 4.6.6.f.w.:.A b t 5 & @ O X . ",
". X o @ * 4 r g A >.e.h.S.D.D.C.V.B.N.N.%.#...( ! Q Q W W W W Q ~ _ | 4.6.f.f.w.:.A k t 5 & @ O X . ",
"X X O @ & 4 t g A -.w.h.j.S.m.M.b.%.$.#.o...( / ! Q Q W W Q W Q ~ _ | 4.6.f.f.w.:.A k t 5 & @ O . . ",
". X O @ & 4 t g A -.w.g.k.d.d.y.O.O...X.( ( ( ! ! Q Q Q W Q Q Q ~ _ | 4.6.f.i.9.-.A k t 1 & @ O X . ",
". X O @ * 4 r g C -.9.i.f.u.t.} ' ' ` / ^ ! ! ! Q Q Q Q Q Q Q Q ~ _  .4.3.i.w.w.-.C k t 1 & @ O X . ",
". X O @ % 3 t g C -.9.i.i.u.4.| ` ! ! ! Q Q Q Q ~ Q Q Q Q Q Q Q ~ _ | 4.6.u.i.9.-.C k t 5 & @ O X . ",
". X o @ & 5 t k A -.0.f.u.6.4.| ) ~ Q Q W W Q Q Q Q Q Q W Q Q ~ ~ _  .4.6.a.p.0.-.C k y 4 & @ O X . ",
". X o @ & 5 t k A ;.0.f.6.6.4.| ) Q Q W W W W Q Q Q Q Q Q Q Q Q ~ _ | 4.6.a.f.0.:.A k y 4 & @ O X . ",
". X O @ & 4 t k A :.w.f.6.6.4.| ) Q Q W W W W W Q Q W Q W W Q Q ~ _ | 5.6.6.f.w.:.A k t 4 & @ O . . ",
". X O @ & 5 t k A ;.w.f.a.6.4.| ) ~ Q W W W W W W Q Q W W W Q Q ~ _ | 4.6.f.f.w.:.A b t 4 & @ O X . ",
". X O @ & 5 t k C -.0.f.a.6.4.| ) ~ Q Q Q W Q Q Q Q Q Q Q Q Q Q ~ _ | 4.6.f.i.w.:.C k t 5 & @ O X . ",
". X o @ & 5 t k V =.9.q.6.6.2.| _ ~ Q Q Q Q Q Q ~ Q ~ Q Q Q Q Q ~ _ | 2.6.a.0.r.-.C k y 1 & @ O X . ",
". X O @ & 4 t j B Y ;.7.8.1.1.{ ` ) ~ ~ ~ ~ ~ ~ ~ ) ~ ~ ~ ~ ~ ~ _ ` { } t.8.7.-.Y V j r 1 & @ o X . ",
". . O @ $ 1 e d b V U R E [ [ ] ` ` ` ) ) ) _ _ _ _ _ ) _ _ _ _ ` ` ] [ I E R H V b d e 1 & @ O X . ",
". X O @ $ , q t j b n Z H K L P ] { | | |  . .| { | | | | | | { { ] P L K H Z n b d u 7 , $ @ O X . ",
". X O @ $ > 5 q t p j g x v J L P 1.2.2.4.4.4.4.4.2.5.4.4.4.2.2.} [ L J v x z a d y e 5 > $ @ O X . ",
"          = > 4 6 9 r i a z v L I 1.3.6.6.6.6.6.3.3.6.6.6.6.6.3.1.I K v z a i y q 6 4 > =           ",
"            & = - , 4 9 u a x H E 8.6.f.a.f.f.6.a.i.i.a.a.f.a.u.8.E H x a u 8 4 , > = &             ",
"              @ $ $ % , 8 s g Z R 7.q.f.f.f.f.g.i.i.i.f.f.f.f.q.7.R Z z i 9 3 % $ # @               ",
"              O O O $ ; 3 r a n U ;.9.w.w.g.w.r.9.9.0.0.p.w.w.9.>.U n j r 3 = $ + O o               ",
"                . o + $ 2 q d z C Y =.-.:.:.:.-.-.:.:.:.:.:.-.=.Y C k d 7 , $ @ o .                 ",
"                  . o $ - 6 u d b B V C A A A A C C A A A A A C B b j r 6 - # O .                   ",
"                    o # = 1 q i d j k k k b k k k k k k k k k k j d t y 4 = @ o                     ",
"                        & > 5 7 e y y y t t y t y y t t t t y y r e 7 5 > &                         ",
"                          = > , 1 1 4 4 4 4 4 4 4 4 4 4 5 4 4 4 1 1 , > =                           ",
"                            $ $ & & & & & & & & & & & & & & & & & & & $                             ",
"                            @ @ @ @ @ @ @ @ @ @ @ @ @ @ @ @ @ @ @ @ @ @                             ",
"                            O O O O O O O O O O O O O O O O O O O O O o                             ",
"                            . X X X . X X X X X . X X X X X . X X X . .                             ",
"                            . . . . . . . . . . . . . . . . . . . . . .                             "
};
