/* XPM */
static char *result[] = {
/* columns rows colors chars-per-pixel */
"50 50 129 2 ",
"   c #2F4355",
".  c #314659",
"X  c #345B7C",
"o  c #53626C",
"O  c #5E676C",
"+  c #5D686E",
"@  c #526572",
"#  c #6D757A",
"$  c #3C6384",
"%  c #3D6688",
"&  c #3B688E",
"*  c #336A96",
"=  c #3D6D94",
"-  c #356E9B",
";  c #386E99",
":  c #36709F",
">  c #3A719D",
",  c #3671A0",
"<  c #3B74A2",
"1  c #4A6E87",
"2  c #446C8D",
"3  c #526E86",
"4  c #4F728E",
"5  c #52728E",
"6  c #426C90",
"7  c #457195",
"8  c #4D7491",
"9  c #42759D",
"0  c #49769A",
"q  c #4B799E",
"w  c #537592",
"e  c #567995",
"r  c #5A7893",
"t  c #547B9C",
"y  c #5A7E9C",
"u  c #627E95",
"i  c #4377A2",
"p  c #457AA5",
"a  c #4B7CA4",
"s  c #467DA9",
"d  c #4A7EA9",
"f  c #517EA2",
"g  c #768188",
"h  c #4F80A7",
"j  c #4E81AB",
"k  c #5582A6",
"l  c #5D83A3",
"z  c #5384AB",
"x  c #5B87AB",
"c  c #5D89AD",
"v  c #6185A3",
"b  c #638CAE",
"n  c #6A8FAC",
"m  c #6C91AE",
"M  c #7394AE",
"N  c #7996AD",
"B  c #7B98AE",
"V  c #658EB0",
"C  c #688FB0",
"Z  c #6C92B1",
"A  c #7395B2",
"S  c #7C9BB2",
"D  c #769AB8",
"F  c #7D9EBA",
"G  c #7EA0BC",
"H  c #928F8F",
"J  c #95918F",
"K  c #9F9FA1",
"L  c #829EB3",
"P  c #86A1B5",
"I  c #8BA4B5",
"U  c #84A3BC",
"Y  c #88A5BE",
"T  c #8EA8BB",
"R  c #91A6B4",
"E  c #93ABBB",
"W  c #9AAFBC",
"Q  c #9EB2BE",
"!  c #A3B4BE",
"~  c #A9B6BB",
"^  c #AEB9BE",
"/  c #B3B3B4",
"(  c #B1B7BD",
")  c #B4BDBF",
"_  c #86A6C0",
"`  c #98AFC3",
"'  c #9CB2C0",
"]  c #A5B7C2",
"[  c #A7B9C3",
"{  c #AABAC3",
"}  c #B3BEC1",
"|  c #B4BFC9",
" . c #B4C0C6",
".. c #BEC7C7",
"X. c #B5C3CB",
"o. c #BAC6CB",
"O. c #BDC9CC",
"+. c #B9C7D3",
"@. c #C4CDCC",
"#. c #CBD1CF",
"$. c #D3D6CE",
"%. c #C1CDD1",
"&. c #CCD3D5",
"*. c #CCD6D9",
"=. c #D6DAD5",
"-. c #DADDD7",
";. c #D5DCDB",
":. c #DADEDB",
">. c #DDE2DF",
",. c #E0E1D7",
"<. c #E4E4DC",
"1. c #E8E7DD",
"2. c #EBEADF",
"3. c #DADEE1",
"4. c #DFE4E1",
"5. c #E2E6E2",
"6. c #E6E9E5",
"7. c #ECECE3",
"8. c #EDEEE8",
"9. c #F1EFE3",
"0. c #EFF0EA",
"q. c #F3F1E4",
"w. c #F5F5EC",
"e. c #F8F7EE",
"r. c #F9F8EF",
"t. c #F7F7F2",
"y. c #F8F7F0",
"u. c #F9F9F1",
"i. c None",
/* pixels */
"i.i.i.i.i.i.i.i.i.i.i.i.i.i.i.i.i.i.i.i.i.i.i.i.i.i.i.i.i.i.i.i.i.i.i.i.i.i.i.i.i.i.i.i.i.i.i.i.i.i.",
"i.i.i.i.i.i.i.i.i.i.i.i.i.i.i.i.i.i.i.i.i.i.i.i.i.i.i.i.i.i.i.i.i.i.i.i.i.i.i.i.i.i.i.i.i.i.i.i.i.i.",
"i.i.i.i.i.i.i.i.i.i.i.i.i.i.i.i.i.i.i.i.i.i.i.i.i.i.i.i.i.i.i.i.i.i.i.i.i.i.i.i.i.i.i.i.i.i.i.i.i.i.",
"i.i.i.i.i.i.i.i.i.i.i.i.i.i.i.i.i.i.i.i.i.i.i.i.i.i.i.i.i.i.i.i.i.i.i.i.i.i.i.i.i.i.i.i.i.i.i.i.i.i.",
"i.i.i.i.i.i.i.i.i.i.i.i.i.i.i.i.i.i.i.i.i.i.i.i.i.i.i.i.i.i.i.i.i.i.i.i.i.i.i.i.i.i.i.i.i.i.i.i.i.i.",
"i.i.i.i.i.i.i.i.i.i.i.i.i.i.i.i.l i.i.i.i.i.i.i.i.i.i.i.i.i.i.i.i.i.i.i.i.i.i.i.i.i.i.i.i.i.i.i.i.i.",
"i.i.i.i.i.i.i.i.i.i.i.i.i.i.i.i.f c i.i.i.i.i.i.i.i.i.i.i.i.i.i.i.k b i.i.i.i.i.i.i.i.i.i.i.i.i.i.i.",
"i.i.i.i.i.i.i.i.i.i.i.i.i.i.i.i.a z b i.i.i.i.i.i.i.i.i.i.i.i.i.a x b i.i.i.i.i.i.i.i.i.i.i.i.i.i.i.",
"i.i.i.i.i.i.i.i.i.i.i.i.i.i.i.i.i.j x b i.i.i.i.i.i.i.i.i.i.i.i.z b b i.i.i.i.i.i.i.i.i.i.i.i.i.i.i.",
"i.i.i.i.i.i.i.i.i.i.i.i.i.i.i.i.i.q a y i.i.i.i.i.i.i.i.i.i.i.i.z b i.i.i.i.i.i.i.i.i.i.i.i.i.i.i.i.",
"i.i.i.i.i.i.i.i.i.i.i.i.i.i.i.i.i.i.= k v b b b b b b b b b l t l w i.i.i.i.i.i.i.i.i.i.i.i.i.i.i.i.",
"i.i.i.i.i.i.i.i.i.i.i.i.i.i.i.i.i.i k c b b b V V V b V b b V b b i.i.i.i.i.i.i.i.i.i.i.i.i.i.i.i.i.",
"i.i.i.i.i.i.i.i.i.i.i.i.i.i.i.i.p j c V V V V V b V C V b V V b V b i.i.i.i.i.i.i.i.i.i.i.i.i.i.i.i.",
"i.i.i.i.i.i.i.i.i.i.i.i.i.i.i.9 j x A ` L V V V V b b b b n Z Y S b b i.i.i.i.i.i.i.i.i.i.i.i.i.i.i.",
"i.i.i.i.i.i.i.i.i.i.i.i.i.i.i.p z C *.J / F b b q 2 $ a V C | H &.U b b i.i.i.i.i.i.i.i.i.i.i.i.i.i.",
"i.i.i.i.i.i.i.i.i.i.i.i.i.i.X $ 6 C +.K ( D V V w .   4 V C X./ 3.U b l 1 i.i.i.i.i.i.i.i.i.i.i.i.i.",
"i.i.i.i.i.i.i.i.i.i.i.i.i.i.& 6 0 b C F D V b V b b b b V V C _ G b e 5 5 i.i.i.i.i.i.i.i.i.i.i.i.i.",
"i.i.i.i.i.i.i.i.i.i.i.i.i.X % $ 7 V V V V V V V V b b b b V V b V b l 5 5 i.i.i.i.i.i.i.i.i.i.i.i.i.",
"i.i.i.i.i.i.i.i.i.i.i.i.i.X & % a c V V V V V V V b b b b V b b b V b e e 3 i.i.i.i.i.i.i.i.i.i.i.i.",
"i.i.i.i.i.i.i.i.i.i.i.i.i.d j j c b V V V V b V c b b b b b b V b b b b v l i.i.i.i.i.i.i.i.i.i.i.i.",
"i.i.i.i.i.i.i.i.i.i.i.i.< j z c V V b b b n F _ ` ` [ [ ` L A b b V V V V b i.i.i.i.i.i.i.i.i.i.i.i.",
"i.i.i.i.i.i.i.i.i.i.i.i.j z c b V b Z T X.;.0.t.t.u.u.u.y.0.5.| I m b b V V l i.i.i.i.i.i.i.i.i.i.i.",
"i.i.i.i.i.i.i.i.i.i.i.s z z b b n ' =.t.u.u.u.u.t.w.t.t.u.u.u.u.e.=.! m b V b l i.i.i.i.i.i.i.i.i.i.",
"i.i.i.i.i.i.i.i.i.i.p j z c b m X.q.8.6.t.u.u.u.%.L L [ 8.u.u.w.*.=.2.@.N b b b i.i.i.i.i.i.i.i.i.i.",
"i.i.i.i.i.i.i.i.i.i.d a c b b X.7.O.L S [ 6.u.<.' %.&.X.:.u.y.[ P P W =.$.L b b b i.i.i.i.i.i.i.i.i.",
"i.i.i.i.i.i.i.i.i.s d a c c X.q.#.W +.:.4.w.u.t.y.t.u.u.u.u.y.7.8.6.*.>.9.$.N k x i.i.i.i.i.i.i.i.i.",
"i.i.i.i.i.i.i.i.i s a h z ' q.q.1.2.r.u.u.8.%.*.8.y.y.y.:.X.;.y.u.u.8.4.9.9.) k f b i.i.i.i.i.i.i.i.",
"i.i.i.i.i.i.i.i.s d 9 j c ;.>.{ I W 6.u.8.E B L ] 8.u.>.L S L +.e.8.T S W =.,.B 9 k v i.i.i.i.i.i.i.",
"i.i.i.i.i.i.i.9 s i < j T =.E ] o.o.5.u.8.&.7.7.6.y.t.w.6.0.5.5.e.0.>.>.o.] 1.) q a b i.i.i.i.i.i.i.",
"i.i.i.i.i.i.i.p s > p z O.1.<.q.e.u.u.u.u.u.u.u.y.u.u.u.u.u.y.y.u.u.u.u.u.w.w.$.v 9 z i.i.i.i.i.i.i.",
"i.i.i.i.i.i.i.a < * p m <.q.q.q.e.u.u.u.u.u.u.u.u.u.u.u.u.u.u.u.u.u.u.u.u.u.w.1.B q h i.i.i.i.i.i.i.",
"i.i.i.i.i.i.i.p , * i E 9.9.q.q.e.u.u.u.y.u.u.u.u.u.u.u.y.y.u.u.u.u.u.u.e.u.e.2.L a a i.i.i.i.i.i.i.",
"i.i.i.i.i.i.i.> > * p { q.q.q.q.e.u.u.u.u.u.u.r.u.r.u.u.u.u.u.u.r.u.u.u.u.u.r.2.I 0 p i.i.i.i.i.i.i.",
"i.i.i.i.i.i.i.i.7 * a o.q.q.q.q.w.u.u.u.u.u.u.r.u.u.u.u.u.u.t.u.u.u.u.u.u.u.e.9.I 7 w i.i.i.i.i.i.i.",
"i.i.i.i.i.i.i.i.g 8 p o.q.7.q.q.w.u.u.u.u.u.u.u.u.u.r.u.r.u.u.u.u.r.u.u.r.r.w.2.P r # i.i.i.i.i.i.i.",
"i.i.i.i.i.i.i.i.i.8 < ] q.q.q.9.q.u.u.u.u.u.u.r.u.u.u.u.u.r.t.u.r.r.t.u.r.r.q.<.L v i.i.i.i.i.i.i.i.",
"i.i.i.i.i.i.i.i.i.= < B 2.9.q.9.q.e.u.u.u.u.u.r.u.u.u.r.u.u.t.r.u.u.u.u.u.q.q.>.n l i.i.i.i.i.i.i.i.",
"i.i.i.i.i.i.i.i.i.i.> k @.q.q.q.q.q.e.u.u.u.u.u.u.u.u.u.u.u.r.u.r.u.u.u.q.q.q.^ v l i.i.i.i.i.i.i.i.",
"i.i.i.i.i.i.i.i.i.i.> < n ,.q.q.9.q.q.e.u.u.r.u.r.u.u.u.u.t.r.r.u.u.r.q.q.q.9.R c i.i.i.i.i.i.i.i.i.",
"i.i.i.i.i.i.i.i.i.i.* > a W q.q.q.9.q.q.e.u.r.r.u.u.u.u.u.u.u.t.t.0.0.q.q.9.! b z i.i.i.i.i.i.i.i.i.",
"i.i.i.i.i.i.i.i.i.i.* , < z @.q.q.q.q.q.q.q.w.e.e.r.u.r.e.w.w.w.q.q.q.q.2.^ b c a i.i.i.i.i.i.i.i.i.",
"i.i.i.i.i.i.i.i.i.i.i.; < < x { 2.q.q.q.q.q.q.q.q.q.q.q.q.q.9.q.q.q.q.2.~ b c j a i.i.i.i.i.i.i.i.i.",
"i.i.i.i.i.i.i.i.i.i.i.; < , < a P #.7.q.q.q.q.q.q.q.q.q.q.q.q.q.q.q.#.R n b z j q i.i.i.i.i.i.i.i.i.",
"i.i.i.i.i.i.i.i.i.i.i.i.> , > < < k P #.1.9.q.q.q.q.q.q.q.q.q.9.,.^ m z z h j a 7 i.i.i.i.i.i.i.i.i.",
"i.i.i.i.i.i.i.i.i.i.i.i.i.; - , > , < a b S ! ..@.&.=.=.=.#.O.R n k j s j s d q i.i.i.i.i.i.i.i.i.i.",
"i.i.i.i.i.i.i.i.i.i.i.i.i.i.i.% = ; : > > : ; > 9 9 q 7 q p 9 > > > = 7 2 4 i.i.i.i.i.i.i.i.i.i.i.i.",
"i.i.i.i.i.i.i.i.i.i.i.i.i.i.i.+ o @ i.i.> i.i.i.i.i.i.i.i.i.i.i.i.i.i.o O i.i.i.i.i.i.i.i.i.i.i.i.i.",
"i.i.i.i.i.i.i.i.i.i.i.i.i.i.i.i.i.i.i.i.i.i.i.i.i.i.i.i.i.i.i.i.i.i.i.i.i.i.i.i.i.i.i.i.i.i.i.i.i.i.",
"i.i.i.i.i.i.i.i.i.i.i.i.i.i.i.i.i.i.i.i.i.i.i.i.i.i.i.i.i.i.i.i.i.i.i.i.i.i.i.i.i.i.i.i.i.i.i.i.i.i.",
"i.i.i.i.i.i.i.i.i.i.i.i.i.i.i.i.i.i.i.i.i.i.i.i.i.i.i.i.i.i.i.i.i.i.i.i.i.i.i.i.i.i.i.i.i.i.i.i.i.i."
};
