/* XPM */
static char *result[] = {
/* columns rows colors chars-per-pixel */
"50 50 82 1 ",
"  c #3E5367",
". c #52606C",
"X c #4D6C88",
"o c #566D81",
"O c #527187",
"+ c #53718D",
"@ c #557491",
"# c #567B9C",
"$ c #597D9D",
"% c #517CA3",
"& c #597FA1",
"* c #5C82A4",
"= c #5683AB",
"- c #5D86AA",
"; c #5F88AD",
": c #5D8AB3",
"> c #5F8EB9",
", c #5F91BD",
"< c #6687A5",
"1 c #6086AA",
"2 c #6189AE",
"3 c #7393AD",
"4 c #658EB4",
"5 c #6A8EB5",
"6 c #618FBA",
"7 c #6690B7",
"8 c #6492BC",
"9 c #6D96B9",
"0 c #7298BB",
"q c #7CA0BE",
"w c #6496C3",
"e c #6599C7",
"r c #6B9BC6",
"t c #6599C8",
"y c #739EC4",
"u c #7FA5C6",
"i c #839DB4",
"p c #84A1B8",
"a c #8EA7BA",
"s c #8FA8BB",
"d c #B3BCBF",
"f c #83A6C7",
"g c #88A7C0",
"h c #8CAAC3",
"j c #83A7C8",
"k c #92AEC5",
"l c #9AB2C4",
"z c #96B1C9",
"x c #A4BBCC",
"c c #A0BCD4",
"v c #B3C2CC",
"b c #BFC7C9",
"n c #AAC1D2",
"m c #B8C7D1",
"M c #B2C8D7",
"N c #BCCAD2",
"B c #BDCED9",
"V c #CDCDCD",
"C c #C2CDD2",
"Z c #C3D2DD",
"A c #D2D6D4",
"S c #D6D9D6",
"D c #DDDCD5",
"F c #D7DBDE",
"G c #E0DDD6",
"H c #E6E4DE",
"J c #EAE7DE",
"K c #CCD9E2",
"L c #DBE3E6",
"P c #E2E7E7",
"I c #EDEAE2",
"U c #E3E7E8",
"Y c #EAEDEC",
"T c #F0EDE4",
"R c #F1EFE9",
"E c #EFF1EE",
"W c #F3F3EE",
"Q c #F7F7F2",
"! c #F8F7F2",
"~ c #FBFAF5",
"^ c #FDFCF8",
"/ c None",
/* pixels */
"//////////////////////////////////////////////////",
"//////////////////////////////////////////////////",
"//////////////////////////////////////////////////",
"//////////////////////////////////////////////////",
"//////////////////////////////////////////////////",
"//////////////////////////////////////////////////",
"//////////////////////////////////////////////////",
"////////////////////////2////-////////////////////",
"///////////////////////84///84////////////////////",
"///////////////////////w4///w4////////////////////",
"///////////////////////$+//8e4////////////////////",
"//////////////////////8:-:/#:$////////////////////",
"///////////////////8eetttt=$&+////////////////////",
"//////////////////etttetette741///////////////////",
"/////////////////8erjrettttew44*//////////////////",
"/////////////////=8iVcetetettw44//////////////////",
"//////////////// =eyz9>eeeteee441/////////////////",
"////////////////>ee:%%=>ettete744/////////////////",
"////////////////wee,==::,eette7444////////////////",
"////////////////weet>=:,eeette8441////////////////",
"///////////////5fuyeeeweeteetw4442////////////////",
"///////////////FWYUNhtttettttw5444////////////////",
"//////////////Q^~~^~Ymyeettet844444///////////////",
"/////////////gL^Q!~~!Tvrttttt844442///////////////",
"////////////IULLcL~~~WSytteee844444///////////////",
"////////////Q~~EZB~~~WTxeteetw44744///////////////",
"////////////YnL~~R!LYWTAreeet844444@//////////////",
"///////////IQKBQ~^QxxTTVwwwete44444*//////////////",
"///////////I^^!!QZL!LITxw88tte74444-//////////////",
"///////////W~~~!UnlQ~!IAyw6ttt724442//////////////",
"///////////Q!~~~~!UQ^!IJh66ttt824444//////////////",
"///////////W~~~!~~!~~WIIlw6ttt724442//////////////",
"///////////W~~~~!~~~~RIJzw:etw714442//////////////",
"///////////I~~~!~~!~~TIJpe8:>4-2444*//////////////",
"///////////H~~~~~~~^~IIJset1oO*4444#//////////////",
"////////////Q~~~~~~~WTIJget81244452X//////////////",
"////////////Y~~~~~~^TITNwteew474472///////////////",
"/////////////~^~~~^WITAuetew8444442///////////////",
"/////////////W~~~~WITAqeetee7454471///////////////",
"//////////////W!!TIIJawteeew7444454///////////////",
"///////////////HIIITA9etete84474444*//////////////",
"////////////////DIITb7ttettw745444442/////////////",
"//////////////////DAd8ettttw4474444444#///////////",
"///////////////////<31eeett82*4445444441//////////",
"////////////////////@*4ette82/22444747444-////////",
"/////////////////////.$88844*////;*1121$//////////",
"//////////////////////////////////////////////////",
"//////////////////////////////////////////////////",
"//////////////////////////////////////////////////",
"//////////////////////////////////////////////////"
};
