/* XPM */
static char *result[] = {
/* columns rows colors chars-per-pixel */
"50 50 83 1 ",
"  c #3E5367",
". c #51606C",
"X c #4F6E8A",
"o c #566D81",
"O c #527187",
"+ c #53728D",
"@ c #557592",
"# c #537A9D",
"$ c #597C9D",
"% c #527EA5",
"& c #597FA2",
"* c #5C81A4",
"= c #5683AB",
"- c #5D86AB",
"; c #5E88AD",
": c #5D8AB3",
"> c #5F8EB9",
", c #5F90BD",
"< c #6688A6",
"1 c #6086AA",
"2 c #6189AE",
"3 c #7393AE",
"4 c #658EB4",
"5 c #6A8EB5",
"6 c #608FBA",
"7 c #6690B7",
"8 c #6492BC",
"9 c #6D96B9",
"0 c #7298BB",
"q c #7CA0BE",
"w c #6496C3",
"e c #6599C7",
"r c #6B9BC6",
"t c #6599C8",
"y c #739EC4",
"u c #7FA5C6",
"i c #839DB4",
"p c #84A1B8",
"a c #8EA7BA",
"s c #8FA8BB",
"d c #B3BCBF",
"f c #83A6C7",
"g c #88A7C0",
"h c #8CAAC3",
"j c #83A7C8",
"k c #92AEC5",
"l c #9AB2C4",
"z c #96B1C9",
"x c #A4BBCC",
"c c #A0BCD4",
"v c #B3C2CC",
"b c #BFC7C9",
"n c #AAC1D2",
"m c #B8C7D1",
"M c #B2C8D7",
"N c #BDCAD2",
"B c #BDCED9",
"V c #CDCDCD",
"C c #C3CDD2",
"Z c #C3D2DD",
"A c #D2D6D4",
"S c #D6D9D6",
"D c #DDDCD6",
"F c #D7DBDE",
"G c #E1DFD7",
"H c #E7E5DD",
"J c #EAE7DE",
"K c #ECE9DF",
"L c #CCD9E2",
"P c #DBE3E6",
"I c #E3E6E4",
"U c #EDEAE2",
"Y c #E3E7E8",
"T c #EAEDEC",
"R c #F0EDE4",
"E c #F1EFE9",
"W c #EFF1EE",
"Q c #F3F3EE",
"! c #F7F7F2",
"~ c #F8F7F2",
"^ c #FBFAF5",
"/ c #FEFCF8",
"( c None",
/* pixels */
"((((((((((((((((((((((((((((((((((((((((((((((((((",
"((((((((((((((((((((((((((((((((((((((((((((((((((",
"((((((((((((((((((((((((((((((((((((((((((((((((((",
"((((((((((((((((((((((((((((((((((((((((((((((((((",
"((((((((((((((((((((((((((((((((((((((((((((((((((",
"((((((((((((((((((((((((((((((((((((((((((((((((((",
"((((((((((((((((((((((((((((((((((((((((((((((((((",
"((((((((((((((((((((-((((;((((((((((((((((((((((((",
"((((((((((((((((((((48(((48(((((((((((((((((((((((",
"((((((((((((((((((((4w(((4w(((((((((((((((((((((((",
"((((((((((((((((((((4e,((+*(((((((((((((((((((((((",
"(((((((((((((((((((($:#(4=4>((((((((((((((((((((((",
"((((((((((((((((((((+*#=tttttw8(((((((((((((((((((",
"(((((((((((((((((((147eettttettw((((((((((((((((((",
"((((((((((((((((((*47wetttttrjrtw(((((((((((((((((",
"((((((((((((((((((47wttttettcVi8=(((((((((((((((((",
"(((((((((((((((((147eeette,>0zyw= ((((((((((((((((",
"(((((((((((((((((447eteeee>=%%:ww>((((((((((((((((",
"((((((((((((((((4447etete8::==>tew((((((((((((((((",
"((((((((((((((((1747etteeew:=>teww((((((((((((((((",
"((((((((((((((((2447wteetewwttwruf5(((((((((((((((",
"((((((((((((((((44478tttteetthNYWQF(((((((((((((((",
"(((((((((((((((;44448tttetermU//^^^Q((((((((((((((",
"(((((((((((((((444458tttttemU^^^^^^Ph(((((((((((((",
"(((((((((((((((44444wteettySE^^^PcPYYU((((((((((((",
"(((((((((((((((474448tteeexUQ/^^BZT^^!((((((((((((",
"((((((((((((((@444448tteerARQTP~Q^^PMT((((((((((((",
"((((((((((((((*47444ett,weCUUxnQ^^!BL!U(((((((((((",
"((((((((((((((147444wttw8wvRUPQPZW~!^^U(((((((((((",
"((((((((((((((447444ttt88yAR!/QxnT^^^^Q(((((((((((",
"((((((((((((((444426wtt>8hKU~/!P~^^^^^Q(((((((((((",
"((((((((((((((244527ett>8lKUQ/^^^^!^^^Q(((((((((((",
"((((((((((((((245414wew>wkUUR/^^~!^^^^Q(((((((((((",
"((((((((((((((*4442-47:wwpHUR//^^^!^^^U(((((((((((",
"(((((((((((((($4444*O.4tesKUR~//^^^^^^I(((((((((((",
"((((((((((((((X27444;-wteaHUKQ^~^^^^^~((((((((((((",
"(((((((((((((((274475weetwNRUQ//^^^^^Q((((((((((((",
"(((((((((((((((2444448reteuSUKQ/^^/^^(((((((((((((",
"(((((((((((((((2744747wetee0AUUQ^^^^Q(((((((((((((",
"(((((((((((((((4544444wttetwsJUURQ!Q((((((((((((((",
"((((((((((((((*44447448tteee9ARUUUH(((((((((((((((",
"(((((((((((((244444447wttete7bRUUG((((((((((((((((",
"((((((((((($4444444744wtteee8xAD((((((((((((((((((",
"((((((((((-444444447*28tteer<3<(((((((((((((((((((",
"((((((((144444747522(28erte:*@((((((((((((((((((((",
"((((((((((&1221*1((((*478w8$.(((((((((((((((((((((",
"((((((((((((((((((((((((((((((((((((((((((((((((((",
"((((((((((((((((((((((((((((((((((((((((((((((((((",
"((((((((((((((((((((((((((((((((((((((((((((((((((",
"(((((((((((((((((((((((((((((((((((((((((((((((((("
};
